# Blender 4.0.2
# www.blender.org
mtllib rainworld.mtl
o Slugcat
v 0.493581 1.176256 -1.141532
v 0.785083 0.823886 -0.955243
v 0.885544 1.348646 -1.333332
v 1.103048 1.142200 -1.148603
v 1.165752 1.557984 -1.374423
v 1.307047 1.458004 -1.266296
v 1.289252 1.654076 -1.410235
v 1.375412 1.607774 -1.352003
v 0.626216 2.125270 0.253796
v 0.292842 2.224084 0.677744
v 0.340270 2.726629 0.050340
v 0.424477 2.445774 0.682035
v 0.459410 3.110300 0.085680
v 0.746395 2.531481 0.618597
v 0.347842 4.111729 0.244550
v 0.961396 2.631682 0.565131
v 0.018931 0.975657 0.521433
v -0.005616 0.542158 0.194819
v -0.079789 1.514831 -0.699588
v 0.017534 0.334302 -0.344330
v 0.408815 1.179300 -1.397434
v 0.823953 0.642553 -1.107170
v 0.888569 1.362135 -1.532970
v 1.204676 1.037895 -1.264494
v 1.174569 1.549384 -1.504925
v 1.381499 1.394658 -1.349854
v 1.320160 1.647538 -1.491909
v 1.422804 1.591164 -1.424446
v 0.060329 1.906065 0.796711
v 0.115381 2.517610 -0.134726
v 0.097804 2.131976 0.839309
v 0.038637 3.004420 -0.049901
v 0.301101 2.427655 0.865657
v 0.103680 3.399176 0.133863
v 0.478133 2.494503 0.852456
v 0.217202 3.690803 0.469341
v 0.962824 2.645323 0.810161
v 0.664789 3.809197 0.667296
v 0.643787 2.117289 0.486170
v 0.408744 2.478620 0.416677
v 0.521482 2.784996 0.301653
v 0.554455 3.024427 0.144409
v 1.076894 3.299651 0.743252
v 0.655951 1.038433 -0.958775
v 0.967357 1.255707 -1.172747
v 1.225115 1.520256 -1.282290
v 1.337627 1.646155 -1.374439
v 1.393408 1.655950 -1.466344
v 0.890518 1.171152 -0.166418
v 0.901347 0.903904 0.082924
v 0.833319 0.870896 -0.449507
v 0.789666 1.196133 -0.410430
v 0.894662 0.565539 -0.353145
v 1.014636 0.734341 -0.139311
v 0.953530 0.944283 -0.273236
v 0.809426 -0.051533 0.211317
v 0.821134 -0.046296 0.054655
v 0.914659 0.017825 -0.133352
v 1.094225 0.058261 -0.085749
v 0.955155 -0.025528 0.262485
v 1.082859 0.003676 0.141151
v 0.800617 0.226069 0.154380
v 0.797587 0.499858 0.201289
v 0.750013 0.338713 -0.018988
v 0.790270 0.114013 0.003596
v 0.828330 0.299542 -0.269704
v 0.885093 0.153602 -0.190890
v 1.060636 0.196670 -0.153022
v 0.948339 0.255739 0.194649
v 0.960548 0.532653 0.185883
v 1.099762 0.187193 0.105002
v 1.063049 0.444412 -0.008232
v 0.548396 1.887210 0.119581
v 0.082812 2.102947 -0.305499
v 0.043429 1.645877 0.732996
v 0.539839 1.798484 0.216924
v 0.175113 2.329614 0.853373
v 0.484083 2.574967 0.488706
v 1.144553 3.131338 0.766848
v 0.603526 2.699360 0.326108
v 0.307044 2.372795 0.704401
v 0.382586 2.468880 0.536755
v 0.822619 2.824248 0.231628
v 0.862839 2.682824 0.384195
v 0.611077 2.523435 0.551787
v 0.451964 3.793058 0.603906
v 0.709746 2.539896 0.816416
v 0.769682 2.998425 0.165626
v 0.844074 3.071988 0.218834
v 0.903664 2.946883 0.284940
v 1.094790 2.753462 0.572753
v 0.969478 3.530322 0.719792
v 0.966517 2.790535 0.396639
v 0.494471 2.253923 0.499771
v 0.416138 2.024069 0.598872
v 0.375755 1.938871 -0.151396
v 0.482971 2.353532 0.151366
v 0.466349 1.730864 0.465934
v 0.494538 1.697817 0.065874
v 0.602243 1.998367 0.550592
v 0.602074 1.880859 0.440439
v 0.739878 -0.008290 0.318157
v 0.703868 -0.038154 0.183480
v 0.892926 0.020600 0.380677
v 1.042187 0.024997 0.316214
v 0.706566 0.061862 0.164400
v 0.733438 0.122849 0.285927
v 0.885070 0.152062 0.346319
v 1.032167 0.126949 0.292333
v 0.451883 3.455264 0.113947
v 0.739637 3.512761 0.179821
v 0.737123 3.733158 0.296929
v 0.404143 4.017546 0.282917
v 0.535424 4.022867 0.266935
v 0.568383 3.975105 0.155393
v 0.362159 3.903840 0.108651
v 0.297779 3.955317 0.227856
v 0.475845 3.931542 0.079589
v 0.455858 4.155540 0.208149
v 0.478623 4.131003 0.107194
v 0.293230 4.017783 0.084088
v 0.245962 4.048410 0.177319
v 0.403224 4.061113 0.047870
v 0.224998 4.250136 0.097955
v 0.997010 0.357600 -0.249871
v 0.566708 1.547645 -0.003203
v -0.043539 1.848269 -0.448981
v 0.322303 1.738962 -0.326772
v 0.034731 1.391066 0.659793
v 0.438219 1.458959 0.448347
v 0.514338 0.578120 -0.715119
v 0.324641 1.170734 -0.772971
v 0.362841 0.390733 -0.851601
v 0.065231 1.246530 -1.003366
v 0.526685 0.881638 -0.692119
v 0.458524 1.545024 1.175643
v 0.263456 1.588850 1.093415
v 0.509533 1.352164 1.144057
v 0.532500 1.459497 1.188696
v 0.412004 1.407187 1.105859
v 0.253749 1.521225 1.069339
v 0.364451 1.463650 1.271052
v 0.234705 1.559464 1.146995
v 0.448765 1.317860 1.235243
v 0.453975 1.410265 1.278900
v 0.339058 1.368359 1.218772
v 0.227251 1.498177 1.124705
v 0.360759 1.587094 1.107924
v 0.329018 1.495254 1.065432
v 0.286965 1.529972 1.193548
v 0.267029 1.453966 1.152369
v 0.160311 1.562801 1.086256
v 0.167456 1.529172 1.079058
v 0.150904 1.552681 1.109478
v 0.158651 1.520509 1.103206
v 0.428892 1.550362 0.973262
v 0.446892 1.607086 1.031893
v 0.475421 1.466596 0.969158
v 0.599830 1.461864 1.086961
v 0.584135 1.403179 1.018491
v 0.539032 1.570365 1.092746
v 0.575644 1.395762 1.110329
v 0.386095 1.575372 1.028115
v 0.539258 1.376844 1.070265
v 0.545006 1.379278 1.178404
v 0.333483 1.564665 1.055377
v 0.480007 1.343470 1.263541
v 0.244473 1.491610 1.181242
v 0.263727 1.566190 1.056059
v 0.218694 1.518546 1.155548
v 0.160620 1.546992 1.076615
v 0.148642 1.534118 1.108308
v 0.389789 1.517544 1.015174
v 0.450219 1.439502 1.032079
v 0.525553 1.652511 0.943298
v 0.645364 1.407331 0.905035
v 0.484064 1.612178 0.892496
v 0.536613 1.492552 0.879228
v 0.687401 1.483013 0.977309
v 0.612004 1.606542 0.997993
v 0.825739 1.632429 0.519974
v 0.697489 1.655706 0.477725
v 0.690987 1.730918 0.550143
v 0.918285 1.725152 0.583499
v 0.851200 1.849855 0.629996
v 0.762564 1.835001 0.621990
v 0.326082 1.391191 1.275465
v 0.213438 1.388990 1.313482
v 0.191116 1.413173 1.290267
v 0.206045 1.345612 1.272737
v 0.181379 1.373996 1.254412
v 0.177246 1.389517 1.271248
v 0.206921 1.355785 1.297264
v 0.340388 1.261881 1.322468
v 0.337419 1.293512 1.341610
v 0.305521 1.311110 1.336816
v 0.341230 1.248931 1.299521
v 0.302445 1.267673 1.291707
v 0.294952 1.281971 1.314123
v 0.186940 1.513490 1.113853
v 0.201943 1.528363 1.072745
v 0.184485 1.558944 1.124289
v 0.200532 1.577292 1.085120
v 0.205289 1.559154 1.060147
v 0.177901 1.528146 1.133595
v 0.258399 1.364681 1.258422
v 0.218095 1.409906 1.224005
v 0.271026 1.378512 1.296365
v 0.207594 1.443842 1.237797
v 0.231165 1.466989 1.265727
v 0.271355 1.430777 1.306390
v 0.323964 1.313069 1.271785
v 0.308704 1.343005 1.299143
v 0.385210 1.348921 1.331025
v 0.406312 1.301010 1.311750
v 0.389146 1.281141 1.283517
v 0.333938 1.378378 1.324316
v 0.511555 1.054764 0.374933
v 0.680213 0.893835 0.189389
v 0.388601 0.565695 0.112070
v 0.585963 0.519475 0.018627
v 0.375978 1.361344 -0.527319
v 0.588703 1.268160 -0.456234
v 0.603144 0.459316 -0.332757
v 0.312405 0.460706 -0.332554
v 0.740905 1.289614 -0.115766
v 0.689534 1.370307 -0.052226
v 0.594220 0.817129 -0.507357
v 0.461970 0.810608 -0.556464
v 0.231605 4.245159 0.164608
v 0.268149 4.211339 0.214448
v 0.296367 4.277550 0.144446
v 0.369048 4.259628 0.178123
v 0.385691 4.247133 0.077544
v 0.304547 4.271543 0.077185
v 0.212338 4.140331 0.062326
v 0.184625 4.195639 0.060344
v 0.164791 4.209954 0.120221
v 0.173293 4.157225 0.149178
v 0.261528 4.235875 0.035123
v 0.315814 4.191066 0.018851
v 0.713774 2.771148 0.243816
v 0.751817 2.611081 0.418922
v 0.654143 3.537119 0.105698
v 0.669220 3.119989 0.132035
v 0.793148 3.706992 0.308263
v 0.772346 3.748792 0.693637
v 0.855169 2.592472 0.804893
v 0.856354 2.577780 0.587874
v 0.783243 3.248151 0.171680
v 1.049645 3.093666 0.554030
v 1.150007 3.179391 0.620204
v 0.987349 3.147699 0.482580
v 0.893222 3.120991 0.379845
v 0.963582 3.059369 0.440355
v 0.816660 3.553021 0.419847
v 0.856963 3.539326 0.533397
v 1.018393 3.063020 0.496302
v 0.903897 3.452687 0.552087
v 0.869536 3.430421 0.444950
v 0.859022 3.375933 0.264241
v 0.781897 3.490802 0.335929
v 0.979479 3.285374 0.573052
v 0.939642 3.266804 0.459488
v 0.839661 3.226527 0.338270
v 0.938871 3.615353 0.554097
v 1.004143 3.506207 0.605474
v 1.170603 3.091828 0.590371
v 1.130984 3.039697 0.499480
v 0.888537 3.624429 0.400135
v 0.971838 3.109148 0.342025
v 0.910099 3.230830 0.301323
v 1.030708 3.163143 0.564121
v 1.090834 3.316068 0.630075
v 0.790636 3.362600 0.311246
v 0.853698 3.527449 0.292614
v 1.053964 3.038355 0.412915
v 1.015975 2.916074 0.397801
v 0.876532 3.156793 0.254980
v 0.873690 3.651736 0.703389
v 0.793495 3.525623 0.239849
v 0.936808 3.039200 0.306306
v 1.130767 2.909122 0.529511
v 0.857485 3.690635 0.601703
v 0.842674 3.670349 0.356462
v 0.821739 3.320636 0.217285
v 1.072686 2.742821 0.816782
v 1.190175 2.985219 0.659092
v 1.180546 2.977326 0.800788
v 1.170752 2.855221 0.689054
v 1.156085 2.835194 0.822231
v 0.960504 3.479413 0.582729
v 0.904128 3.576793 0.544421
v 1.080917 3.051969 0.503784
v 1.114625 3.093362 0.576603
v 0.854563 3.591960 0.411666
v 0.875221 3.230088 0.323310
v 0.934320 3.114489 0.364843
v 1.098125 3.171101 0.593814
v 1.041606 3.301063 0.606428
v 0.826108 3.369765 0.289284
v 0.822085 3.511122 0.318248
v 1.014320 3.051696 0.433340
v 0.446288 3.594912 0.122380
v 0.631897 3.653751 0.122829
v 0.644536 3.822765 0.553935
v 0.467294 3.788557 0.538917
v 0.302614 3.737706 0.415942
v 0.712071 3.749751 0.286108
v 0.596586 3.880124 0.457972
v 0.561070 3.931338 0.358171
v 0.661183 3.812233 0.257549
v 0.603921 3.879714 0.215800
v 0.319685 3.875080 0.288913
v 0.305960 3.800755 0.353295
v 0.401694 3.805889 0.131998
v 0.417461 3.697959 0.126673
v 0.522194 3.834402 0.119616
v 0.576581 3.743759 0.121712
v 0.432018 3.920625 0.354834
v 0.445536 3.852661 0.451106
v 0.857684 1.544040 0.698537
v 0.810179 1.516707 0.800600
v 0.883474 1.660608 0.732789
v 0.781318 1.621850 0.875116
v 0.834925 1.762121 0.714477
v 0.669073 1.692126 0.821203
v 0.767312 1.737702 0.678232
v 0.638556 1.662461 0.772367
v 0.728530 1.608781 0.649989
v 0.659289 1.551964 0.719256
v 0.743720 1.468253 0.730812
v 0.779336 1.530230 0.631708
v 0.606526 1.802674 0.268175
v 0.592766 1.809485 0.350042
v 0.733035 1.890836 0.335072
v 0.796144 1.943617 0.468815
v 0.731891 1.965770 0.537607
v 0.670652 1.904933 0.485728
v 0.448565 0.947797 -1.502728
v 0.741925 0.597542 -1.310684
v 0.993954 1.214170 -1.617849
v 1.212543 1.001525 -1.443743
v 1.246398 1.464943 -1.574872
v 1.390540 1.361678 -1.473823
v 1.346005 1.588600 -1.551298
v 1.433379 1.540899 -1.496081
v -0.442227 2.179667 -0.087150
v -0.232509 2.282622 0.753601
v -0.289697 2.955477 0.153299
v 0.045065 2.540187 0.942646
v -0.165139 3.366505 0.398044
v 0.588675 2.565625 0.977781
v 0.144791 4.159493 0.720525
v 0.812964 2.655878 1.023547
v -0.575291 2.220621 0.118940
v -0.380574 2.717880 0.542698
v -0.251670 3.069316 0.692635
v 0.037547 3.173573 1.043670
v 0.591970 0.707904 -1.477312
v 1.121437 1.060203 -1.584137
v 1.335403 1.393016 -1.556416
v 1.401774 1.572149 -1.533881
v -0.827808 1.189045 -0.025662
v -0.913216 0.949105 0.247079
v -0.763995 0.839504 -0.383856
v -0.713372 1.179663 -0.323780
v -0.807711 0.546445 -0.232956
v -0.973877 0.741335 0.022315
v -0.889292 0.952821 -0.131867
v -0.871843 -0.041759 0.473743
v -0.761245 -0.016293 0.357924
v -0.720399 0.060846 0.132022
v -0.905220 0.075568 0.083795
v -1.010888 -0.025793 0.403437
v -1.013136 0.013069 0.236017
v -0.838383 0.246636 0.457731
v -0.800501 0.561835 0.428756
v -0.668389 0.404865 0.244729
v -0.714649 0.152677 0.346817
v -0.686455 0.334031 -0.035941
v -0.710232 0.195134 0.064736
v -0.889806 0.208626 0.041864
v -0.978385 0.263830 0.385762
v -0.955748 0.564006 0.371032
v -1.019278 0.197957 0.212988
v -0.990377 0.448492 0.167138
v -0.448026 1.962929 -0.081328
v -0.572113 1.819805 0.224665
v -0.151079 2.785635 0.874676
v 0.110244 2.840755 1.069121
v -0.081858 2.451660 0.848768
v -0.249965 2.650717 0.741285
v 0.459608 2.896276 1.220296
v 0.595977 2.733389 1.135578
v 0.312847 2.596263 1.019276
v 0.392657 3.070966 1.215819
v 0.529848 3.122298 1.198683
v 0.617074 2.991955 1.186995
v 0.963425 2.769795 1.030826
v 0.734901 2.825752 1.138117
v -0.510484 2.346007 0.259240
v -0.361305 2.049546 0.663164
v -0.395031 1.960476 -0.138952
v -0.290250 2.380826 -0.064942
v -0.369847 1.730864 0.631853
v -0.553814 1.697046 0.265276
v -0.582498 2.059160 0.363566
v -0.562115 1.892354 0.440688
v -0.906366 -0.009410 0.599772
v -0.781142 -0.022414 0.532866
v -1.058922 0.007903 0.531994
v -1.114338 0.015788 0.379283
v -0.777080 0.080003 0.523764
v -0.892171 0.124715 0.590460
v -1.042255 0.142634 0.522292
v -1.100740 0.120058 0.376510
v 0.049497 3.562040 0.932284
v 0.438046 3.559408 1.137175
v 0.504791 3.769936 1.025734
v 0.205537 4.064339 0.747711
v 0.280022 4.084877 0.845738
v 0.217531 4.060348 0.949903
v 0.047147 3.977310 0.853583
v 0.089900 4.003945 0.717954
v 0.105764 4.018252 0.950674
v 0.194879 4.217308 0.816034
v 0.137003 4.211689 0.904641
v -0.011987 4.089093 0.804580
v 0.023226 4.100575 0.701811
v 0.040897 4.145694 0.903918
v -0.036568 4.311376 0.714089
v -0.865339 0.364059 -0.047266
v -0.605157 1.548455 0.187261
v -0.431161 1.738024 -0.254437
v -0.380686 1.459371 0.533440
v 0.157713 0.427514 -1.026281
v -0.074547 1.007210 -1.107227
v -0.018145 0.657020 -1.153837
v -1.041846 2.377806 0.435208
v -0.928556 2.223906 0.468071
v -1.233065 2.334943 0.427876
v -1.154270 2.406483 0.418065
v -1.142208 2.266682 0.441463
v -0.981397 2.181499 0.472564
v -1.067337 2.327275 0.590112
v -0.944434 2.220480 0.533173
v -1.238529 2.325159 0.543735
v -1.157396 2.382878 0.555884
v -1.142930 2.245653 0.581059
v -0.993703 2.182903 0.535428
v -0.977146 2.305147 0.421376
v -1.034033 2.224553 0.434363
v -0.977550 2.252659 0.553361
v -1.037164 2.188989 0.547508
v -0.912423 2.144837 0.526667
v -0.944083 2.135219 0.525840
v -0.920431 2.149679 0.551994
v -0.951140 2.141523 0.551185
v -1.037653 2.326793 0.305429
v -1.028062 2.380817 0.296599
v -1.098377 2.328700 0.324311
v -1.182375 2.373494 0.281816
v -1.188422 2.310700 0.285318
v -1.103274 2.413202 0.276354
v -1.224500 2.355738 0.340104
v -1.008966 2.311402 0.349267
v -1.214976 2.318697 0.349306
v -1.227294 2.380831 0.423529
v -0.981323 2.254799 0.404803
v -1.230389 2.372009 0.542195
v -0.997094 2.204607 0.574330
v -0.946752 2.198721 0.445252
v -0.978465 2.206615 0.557965
v -0.925525 2.134601 0.523228
v -0.936052 2.142314 0.557098
v -1.046852 2.277920 0.359294
v -1.135095 2.308894 0.364979
v -1.002671 2.416907 0.189240
v -1.097663 2.197252 0.179776
v -0.972424 2.413230 0.252895
v -1.017570 2.286868 0.255515
v -1.142215 2.302574 0.139065
v -1.067264 2.393766 0.164667
v -0.729013 2.198884 -0.145969
v -0.715763 2.032114 -0.129810
v -0.775189 1.971949 0.045073
v -0.783361 2.273579 -0.017867
v -0.788534 2.168855 0.139829
v -0.786534 2.039509 0.180474
v -1.118575 2.276652 0.629532
v -1.076828 2.214481 0.721895
v -1.045046 2.192783 0.710016
v -1.112380 2.170605 0.701710
v -1.075963 2.151437 0.694210
v -1.060608 2.163422 0.706938
v -1.104162 2.188923 0.719109
v -1.244238 2.270250 0.687002
v -1.214654 2.289938 0.697628
v -1.185654 2.269557 0.707312
v -1.255736 2.253170 0.670539
v -1.222847 2.226332 0.681248
v -1.207445 2.238641 0.700595
v -0.969462 2.164897 0.545204
v -0.956590 2.152848 0.502104
v -0.928133 2.180662 0.542998
v -0.913923 2.173736 0.499846
v -0.929685 2.157492 0.482839
v -0.956357 2.176829 0.561120
v -1.115346 2.207609 0.657762
v -1.056762 2.173304 0.642102
v -1.108876 2.243642 0.678980
v -1.021896 2.185106 0.651963
v -1.010946 2.226633 0.657163
v -1.061416 2.267548 0.676100
v -1.189213 2.246255 0.643929
v -1.156533 2.261016 0.668253
v -1.182611 2.338140 0.651629
v -1.235591 2.327529 0.633919
v -1.245263 2.290996 0.624757
v -1.134955 2.306357 0.667763
v -0.412260 1.058218 0.436905
v -0.697016 0.937519 0.379782
v -0.352660 0.598793 0.235622
v -0.537937 0.582433 0.238705
v -0.424493 1.334606 -0.540379
v -0.548672 1.241852 -0.415437
v -0.544881 0.435058 -0.255650
v -0.281064 0.395267 -0.436950
v -0.677500 1.301700 0.031322
v -0.617477 1.371654 0.057662
v -0.552210 0.768554 -0.533175
v -0.426422 0.741547 -0.676349
v 0.015190 4.295872 0.673920
v 0.074049 4.256874 0.670721
v 0.047307 4.335940 0.730303
v 0.120327 4.318063 0.761912
v 0.059526 4.323616 0.844611
v 0.004747 4.341758 0.783130
v -0.076706 4.207910 0.744154
v -0.094250 4.260893 0.717632
v -0.064528 4.263646 0.660373
v -0.040958 4.207394 0.653776
v -0.056767 4.310295 0.785929
v -0.033001 4.272437 0.843549
v 0.302568 2.871563 1.169761
v 0.469495 2.676438 1.091597
v 0.295466 3.602755 1.139570
v 0.268641 3.205087 1.165147
v 0.571112 3.737952 1.047934
v 0.707364 2.606961 0.996192
v 0.455913 3.300913 1.188750
v 0.955070 3.099473 0.945147
v 1.090603 3.180450 0.892543
v 0.862688 3.156545 0.985828
v 0.704214 3.142447 1.059973
v 0.799243 3.076988 1.042393
v 0.671018 3.567794 0.962072
v 0.780321 3.543098 0.859967
v 0.884551 3.075288 1.008070
v 0.840924 3.453279 0.846249
v 0.745105 3.438590 0.954078
v 0.596926 3.412219 1.140035
v 0.576981 3.518304 1.029608
v 0.918327 3.285950 0.858709
v 0.821926 3.272165 0.965543
v 0.635735 3.250391 1.064721
v 0.864659 3.618628 0.874208
v 0.954285 3.506677 0.838375
v 1.081460 3.096859 0.963584
v 0.981943 3.053803 1.064781
v 0.719662 3.642816 1.015885
v 0.739570 3.138744 1.144543
v 0.662378 3.263808 1.142675
v 0.955662 3.165213 0.900628
v 1.043292 3.316515 0.852153
v 0.576285 3.389274 1.058437
v 0.613067 3.560079 1.103737
v 0.856728 3.060975 1.120283
v 0.805174 2.942589 1.129715
v 0.600824 3.195464 1.171122
v 0.529298 3.562864 1.115818
v 0.681886 3.073775 1.165529
v 0.988594 2.923966 1.054453
v 0.807001 3.694196 0.805723
v 0.650789 3.693607 1.031731
v 0.532485 3.362615 1.163909
v 1.118803 2.990959 0.940259
v 1.103401 2.862192 0.938367
v 0.905136 3.479934 0.841364
v 0.829344 3.580024 0.867706
v 0.941208 3.065075 1.034893
v 1.025051 3.098477 0.951005
v 0.697690 3.608560 0.988599
v 0.646941 3.259967 1.103902
v 0.721711 3.141193 1.103424
v 1.032643 3.172225 0.894466
v 0.988685 3.301561 0.853631
v 0.585001 3.402618 1.100391
v 0.600729 3.541018 1.065641
v 0.834606 3.072067 1.080324
v 0.097374 3.676575 0.944534
v 0.275358 3.724342 1.095447
v 0.581058 3.832489 0.756405
v 0.423631 3.796669 0.663509
v 0.215371 3.759138 0.611082
v 0.462440 3.794257 1.017765
v 0.474331 3.903621 0.798777
v 0.364408 3.976967 0.825697
v 0.369162 3.876395 0.988784
v 0.284889 3.955566 0.955358
v 0.144301 3.915900 0.704525
v 0.176272 3.831111 0.658853
v 0.087341 3.878542 0.882210
v 0.090334 3.772988 0.913314
v 0.166738 3.915666 0.977087
v 0.216517 3.821482 1.037645
v 0.272889 3.956915 0.739621
v 0.349894 3.872580 0.701877
v -0.922654 2.176699 -0.121055
v -1.005884 2.194879 -0.028950
v -0.918318 2.268764 -0.059480
v -1.026276 2.324178 0.002573
v -0.882849 2.228768 0.054303
v -0.951157 2.329473 0.075742
v -0.867343 2.140820 0.115741
v -0.912758 2.289523 0.155225
v -0.892918 2.076831 0.063068
v -0.918025 2.164343 0.135806
v -0.969765 2.106715 0.040499
v -0.904550 2.059771 -0.081239
v -0.534799 1.995633 -0.082751
v -0.628066 1.895205 0.157751
v -0.539982 2.184393 -0.108629
v -0.625986 2.247956 0.054078
v -0.644604 2.120421 0.259974
v -0.637276 1.973630 0.322131
v 1.161672 3.055777 0.696979
v 1.157852 3.059367 0.772523
v 1.172542 2.995435 0.702728
v 1.178345 2.987542 0.777055
v 1.205542 2.997910 0.782856
v 1.185050 3.069736 0.778325
v 1.200280 3.005798 0.706006
v 1.189409 3.066140 0.700257
v 1.165379 3.022418 0.774209
v 1.177769 2.989552 0.727665
v 1.166254 3.025401 0.698529
v 1.161343 3.058940 0.722085
v 1.208479 3.036913 0.783407
v 1.206641 3.000436 0.732285
v 1.195396 3.036283 0.701887
v 1.190215 3.069824 0.726704
v 1.170359 3.072366 0.775175
v 1.174566 3.066351 0.692840
v 1.186179 2.995663 0.699868
v 1.196292 2.984453 0.780903
v 1.180372 3.031007 0.696354
v 1.193379 2.990038 0.730374
v 1.174606 3.069339 0.723995
v 1.200491 3.035908 0.729824
v 1.167494 3.023469 0.724545
v 1.177915 2.988841 0.745422
v 1.160049 3.059092 0.740212
v 1.206194 2.999542 0.750459
v 1.188329 3.069794 0.745250
v 1.194353 2.988061 0.748533
v 1.173045 3.070411 0.742385
v 1.210249 3.037411 0.756012
v 1.166687 3.023097 0.742398
v 1.130407 3.056071 0.843024
v 1.142628 2.995716 0.842462
v 1.169286 3.006089 0.850787
v 1.157064 3.066445 0.851348
v 1.157602 2.989742 0.821872
v 1.135197 3.025694 0.843602
v 1.140388 3.059137 0.819972
v 1.185844 3.000632 0.829436
v 1.163169 3.036586 0.852428
v 1.168629 3.070027 0.827536
v 1.140485 3.066672 0.852038
v 1.153899 2.995967 0.850653
v 1.147192 3.031319 0.851345
v 1.172952 2.990230 0.825790
v 1.153279 3.069539 0.823618
v 1.179254 3.036107 0.829026
v 1.146977 3.023662 0.820382
v 1.165004 2.988962 0.805735
v 1.146629 3.059219 0.802903
v 1.192876 2.999668 0.812675
v 1.174501 3.069924 0.809843
v 1.181274 2.988184 0.809628
v 1.159384 3.070539 0.806197
v 1.198880 3.037518 0.809123
v 1.153550 3.023221 0.803765
v -3.585196 3.736476 -0.687216
v 2.239359 0.197179 2.121622
v 1.681130 0.567659 1.830162
v 1.695201 0.545533 1.823484
v 1.657276 0.557924 1.869793
v 1.671015 0.568463 1.852460
v 1.648018 0.541085 1.870660
v 1.689844 0.526587 1.826350
v 1.647728 0.527979 1.856602
v 1.665817 0.522468 1.838278
v -2.583039 3.138081 -0.161325
v -0.490016 1.872944 0.859386
v -0.443185 1.891763 0.782196
v -2.547656 3.152358 -0.219751
v -0.461122 1.832780 0.757070
v -2.559807 3.106853 -0.238207
v -0.509865 1.815184 0.833110
v -2.597220 3.093775 -0.180728
v -0.462394 1.892995 0.825955
v -2.562010 3.153167 -0.186553
v -0.440842 1.864229 0.756341
v -2.545096 3.131106 -0.239051
v -0.490656 1.813975 0.789441
v -2.582023 3.092467 -0.213553
v -0.509440 1.840891 0.860476
v -2.597696 3.113793 -0.160441
vn 0.8687 0.2918 0.4002
vn 0.7844 -0.4262 0.4507
vn 0.6685 -0.1310 0.7321
vn 0.4196 0.5720 0.7048
vn -0.0156 0.5718 0.8203
vn 0.4845 0.0210 0.8745
vn 0.4626 0.1667 0.8707
vn -0.1521 0.5755 0.8035
vn 0.5719 0.4200 0.7047
vn 0.1293 0.8423 0.5233
vn 0.9986 -0.0430 0.0294
vn 0.6892 0.0340 -0.7237
vn 0.3466 0.0082 -0.9380
vn 0.3035 -0.5430 -0.7830
vn 0.8422 0.2836 -0.4586
vn 0.8107 0.2552 -0.5269
vn 0.8696 0.4583 0.1838
vn 0.9310 0.2251 0.2872
vn 0.1115 -0.2799 -0.9535
vn -0.1860 0.2115 -0.9595
vn 0.3016 0.1320 -0.9443
vn 0.1660 -0.1224 -0.9785
vn -0.3832 0.8641 0.3264
vn 0.0691 0.9584 0.2768
vn 0.4668 0.5316 -0.7068
vn 0.6775 0.7198 0.1513
vn 0.7786 0.6165 0.1174
vn 0.5666 0.5278 -0.6328
vn 0.7925 -0.4566 0.4042
vn 0.8770 -0.1959 0.4387
vn -0.5223 0.8048 0.2820
vn -0.4790 0.7074 -0.5198
vn -0.4435 0.6995 -0.5604
vn -0.3325 0.5670 -0.7536
vn -0.5738 0.7327 -0.3660
vn -0.1098 -0.7990 -0.5912
vn 0.2234 -0.1816 -0.9577
vn 0.5586 -0.0099 -0.8294
vn 0.5540 -0.1917 -0.8102
vn 0.7097 0.4487 0.5431
vn 0.8591 0.3631 -0.3607
vn 0.9280 0.2834 0.2418
vn 0.5317 0.8295 -0.1711
vn 0.6499 0.7563 -0.0755
vn -0.4102 0.7449 -0.5262
vn -0.1833 0.7939 -0.5798
vn 0.1680 0.2668 -0.9490
vn -0.1196 0.3101 -0.9431
vn -0.9693 0.1499 0.1951
vn -0.3419 0.6577 0.6712
vn -0.2524 0.4255 0.8690
vn -0.9217 -0.1845 0.3412
vn -0.3659 0.9175 0.1559
vn -0.1675 0.8668 -0.4697
vn 0.2641 -0.9585 -0.1075
vn 0.3788 -0.9100 -0.1688
vn 0.3854 -0.9019 0.1949
vn 0.2480 -0.9480 0.1994
vn 0.6430 -0.7278 0.2385
vn 0.4422 -0.0042 0.8969
vn -0.3230 -0.7742 0.5443
vn -0.8924 -0.4323 0.1292
vn -0.3314 -0.1072 0.9374
vn -0.1686 -0.6442 -0.7461
vn 0.3987 -0.7791 -0.4838
vn 0.1090 -0.9269 -0.3590
vn 0.0339 -0.5465 -0.8367
vn 0.1698 -0.8183 -0.5491
vn 0.4607 -0.8850 -0.0677
vn 0.2107 -0.9198 0.3312
vn 0.2764 -0.7616 0.5862
vn 0.7174 -0.0608 0.6940
vn 0.7747 -0.5495 0.3128
vn 0.2553 -0.4176 0.8721
vn 0.1628 -0.1796 0.9702
vn 0.5069 -0.0548 0.8603
vn 0.1195 -0.1897 0.9746
vn -0.3046 -0.5699 -0.7631
vn 0.6873 0.3783 0.6201
vn 0.5696 0.1775 0.8025
vn 0.9814 0.1641 -0.1001
vn 0.9811 0.1740 0.0844
vn 0.9407 0.2019 -0.2727
vn 0.3661 -0.9283 0.0646
vn 0.2305 -0.7699 0.5951
vn 0.0360 -0.7992 0.6000
vn 0.0597 -0.9880 0.1424
vn 0.6653 -0.1572 -0.7299
vn 0.8843 0.4587 0.0870
vn 0.6307 0.5177 -0.5781
vn 0.6456 0.4221 -0.6364
vn 0.9506 0.3023 -0.0708
vn 0.7711 -0.1547 -0.6176
vn 0.9531 0.2023 0.2250
vn 0.7778 -0.6244 0.0718
vn 0.7535 -0.4969 -0.4305
vn 0.3345 -0.9422 0.0188
vn -0.3476 -0.4480 -0.8237
vn -0.1730 -0.7106 -0.6820
vn -0.8198 0.3764 0.4316
vn -0.9271 -0.1624 -0.3380
vn -0.9702 0.1122 -0.2149
vn -0.7543 0.4619 0.4667
vn 0.3302 0.4853 0.8096
vn -0.0208 0.5764 0.8169
vn 0.0022 -0.9895 0.1444
vn -0.3497 -0.8612 -0.3688
vn 0.2100 -0.9520 0.2226
vn 0.9034 -0.1142 -0.4132
vn 0.7450 -0.0415 0.6658
vn 0.9825 0.0269 -0.1843
vn 0.7460 -0.3138 0.5874
vn 0.1206 -0.2384 0.9637
vn 0.0887 -0.2486 0.9645
vn -0.3003 0.5249 -0.7964
vn -0.0635 0.9758 0.2093
vn -0.2958 0.9536 0.0555
vn -0.5451 0.5951 -0.5905
vn 0.7414 0.2582 -0.6195
vn 0.8450 -0.5335 -0.0367
vn 0.9330 0.2960 0.2045
vn 0.9707 0.0478 0.2356
vn 0.9937 -0.0209 -0.1103
vn 0.8405 0.3263 -0.4325
vn 0.8265 0.3713 -0.4232
vn 0.3724 0.1946 -0.9074
vn 0.4405 0.2310 -0.8675
vn -0.4796 0.0605 -0.8754
vn -0.5837 -0.1314 -0.8013
vn 0.7869 0.5341 -0.3090
vn 0.7654 0.5509 -0.3326
vn 0.6966 0.1177 -0.7077
vn 0.9781 0.2026 -0.0484
vn 0.9181 0.3949 0.0344
vn 0.6993 0.0558 -0.7126
vn 0.6611 0.6445 -0.3843
vn 0.6475 0.6147 -0.4505
vn 0.6075 0.2000 -0.7687
vn 0.6983 0.2173 -0.6820
vn 0.5786 0.0449 -0.8144
vn 0.6108 -0.0201 -0.7915
vn 0.6689 -0.1650 -0.7248
vn 0.3956 -0.4004 -0.8265
vn 0.3177 -0.1831 -0.9303
vn 0.6738 -0.3933 -0.6255
vn 0.4611 -0.6551 -0.5985
vn 0.3086 -0.0614 0.9492
vn 0.6980 0.5659 0.4387
vn 0.1505 0.4174 -0.8962
vn 0.8662 0.3657 -0.3404
vn 0.6973 -0.6941 -0.1789
vn 0.0179 -0.7016 0.7124
vn 0.8299 -0.0832 -0.5517
vn 0.6847 0.3858 0.6183
vn 0.0534 -0.3734 0.9261
vn 0.6769 -0.3727 0.6347
vn -0.5977 -0.4827 0.6401
vn -0.7737 -0.6290 -0.0762
vn 0.3348 0.9341 0.1244
vn -0.3179 0.9036 0.2871
vn -0.1650 0.9769 -0.1359
vn 0.2859 0.9572 0.0447
vn -0.8353 0.5388 -0.1099
vn -0.2039 0.2286 0.9519
vn -0.8435 -0.3913 0.3681
vn -0.5482 -0.4597 -0.6987
vn -0.5603 -0.4990 -0.6612
vn 0.8793 0.2533 -0.4033
vn 0.2924 -0.1629 -0.9423
vn 0.2120 -0.0930 -0.9728
vn 0.7900 0.4164 -0.4500
vn 0.3416 0.8672 0.3623
vn -0.5688 -0.2509 -0.7832
vn -0.2461 0.5037 -0.8281
vn -0.7497 0.1218 -0.6504
vn -0.4793 0.8572 -0.1885
vn 0.0928 0.1143 -0.9891
vn 0.5604 0.6803 -0.4724
vn 0.6211 0.6105 0.4914
vn 0.5857 0.6062 0.5381
vn 0.0422 0.9088 -0.4151
vn -0.9036 -0.2290 0.3620
vn -0.6173 -0.4032 -0.6755
vn -0.3028 0.3510 0.8861
vn 0.3681 0.8006 0.4727
vn -0.9391 0.3361 0.0708
vn -0.0681 0.5525 -0.8307
vn 0.6084 -0.1721 0.7748
vn 0.0645 -0.4028 0.9130
vn -0.1063 0.6394 -0.7615
vn 0.9082 0.0902 0.4088
vn 0.6319 0.3501 0.6915
vn 0.7851 -0.5227 0.3323
vn 0.7727 -0.6317 -0.0633
vn -0.9389 -0.1412 -0.3139
vn -0.6654 -0.2611 -0.6993
vn -0.6799 0.5455 -0.4901
vn -0.7430 0.6111 0.2729
vn 0.2928 0.7231 0.6256
vn -0.1162 0.9644 0.2374
vn -0.9277 -0.1072 0.3577
vn -0.6287 0.3562 0.6913
vn 0.0589 -0.9190 -0.3899
vn 0.1136 -0.9820 -0.1511
vn -0.6244 -0.4877 -0.6102
vn -0.7763 0.3728 -0.5084
vn -0.2734 0.9519 0.1385
vn -0.7760 0.1139 -0.6204
vn -0.5464 -0.6045 -0.5797
vn -0.4181 -0.6960 -0.5837
vn -0.6099 -0.2073 -0.7648
vn -0.1169 -0.8301 -0.5451
vn -0.3834 0.6708 0.6348
vn -0.2659 0.9473 -0.1786
vn -0.6329 0.7297 -0.2588
vn -0.7921 0.5097 0.3359
vn -0.3715 -0.7560 -0.5388
vn 0.1712 -0.9553 -0.2411
vn 0.2296 -0.9406 -0.2502
vn -0.3845 -0.7570 -0.5283
vn 0.2863 -0.9506 -0.1200
vn 0.1872 -0.9265 -0.3264
vn 0.2840 0.7393 0.6105
vn 0.6890 0.3088 0.6556
vn 0.8519 -0.0527 0.5210
vn 0.4346 0.6974 0.5699
vn 0.8123 -0.4411 0.3815
vn 0.5056 0.3097 0.8052
vn 0.7393 -0.4216 0.5251
vn 0.1082 0.6028 0.7905
vn -0.2184 0.7649 0.6060
vn -0.0566 0.4050 -0.9126
vn -0.0644 0.9976 -0.0263
vn -0.3997 -0.5008 -0.7677
vn -0.5670 -0.6426 -0.5153
vn -0.6586 -0.1766 0.7315
vn -0.4924 -0.8569 -0.1522
vn -0.9733 0.1583 0.1665
vn -0.2713 0.7008 0.6598
vn -0.5428 -0.2779 0.7926
vn -0.9462 -0.2305 0.2272
vn 0.7726 -0.3140 0.5518
vn 0.4551 0.6345 0.6247
vn -0.2047 0.2781 -0.9385
vn -0.1617 -0.6448 -0.7470
vn -0.4124 -0.6287 -0.6593
vn -0.6784 0.0556 -0.7326
vn -0.5577 -0.8269 -0.0723
vn -0.1839 -0.5588 -0.8086
vn 0.2206 0.4260 0.8774
vn -0.5643 -0.2591 0.7839
vn 0.4168 0.7009 0.5789
vn 0.4249 -0.6772 -0.6008
vn 0.7878 -0.0245 -0.6154
vn 0.6381 -0.5056 -0.5807
vn -0.4078 -0.7926 -0.4534
vn -0.7560 -0.5496 0.3555
vn 0.8859 0.4417 -0.1416
vn 0.9898 0.0720 -0.1228
vn -0.3284 -0.9437 0.0400
vn 0.5999 -0.5013 0.6235
vn 0.3138 0.1366 0.9396
vn 0.0137 -0.2389 0.9710
vn 0.0512 -0.7396 0.6711
vn 0.0941 -0.9694 -0.2266
vn 0.3347 -0.6065 0.7212
vn -0.3028 -0.6823 0.6654
vn -0.2441 -0.9586 -0.1465
vn -0.9651 0.2514 -0.0730
vn -0.6102 -0.2719 -0.7441
vn -0.6612 -0.5965 -0.4549
vn -0.9114 -0.3221 0.2560
vn -0.5692 -0.3483 -0.7447
vn -0.7210 -0.4648 -0.5140
vn -0.2755 -0.0043 0.9613
vn -0.7192 0.4155 0.5568
vn -0.9958 -0.0112 0.0911
vn -0.4597 0.7480 0.4787
vn -0.8808 0.4004 -0.2526
vn 0.1005 0.2949 0.9502
vn -0.6297 0.0906 0.7716
vn 0.0480 -0.9721 -0.2296
vn 0.3182 -0.8925 -0.3198
vn -0.4394 0.4868 0.7549
vn -0.6442 -0.2206 0.7323
vn 0.8350 -0.5072 0.2131
vn -0.0849 0.9691 0.2318
vn -0.4937 0.7063 0.5074
vn 0.6822 -0.0408 -0.7301
vn 0.8348 0.5000 -0.2304
vn 0.7091 0.4654 -0.5297
vn 0.7049 -0.1920 -0.6828
vn 0.8436 -0.2159 -0.4917
vn 0.7767 -0.5505 -0.3061
vn 0.9252 -0.3711 -0.0791
vn 0.9775 -0.0375 -0.2078
vn 0.5604 -0.7911 -0.2451
vn 0.5422 -0.8133 0.2111
vn 0.5360 0.8358 0.1193
vn 0.7855 0.2181 -0.5791
vn 0.5002 0.7073 -0.4995
vn 0.6109 0.7688 -0.1890
vn 0.7943 0.6017 0.0845
vn 0.7022 0.1917 -0.6857
vn 0.6724 0.2580 -0.6938
vn 0.6234 0.2819 -0.7293
vn 0.9599 -0.1969 0.1995
vn 0.9044 -0.3855 -0.1827
vn 0.7876 -0.1572 -0.5958
vn 0.4883 0.5103 -0.7079
vn 0.7006 -0.7135 0.0082
vn 0.6070 -0.4166 -0.6768
vn 0.1952 0.8991 -0.3918
vn 0.2643 0.5833 -0.7681
vn 0.7003 0.3920 -0.5966
vn 0.4288 0.4212 0.7992
vn 0.3753 0.6928 0.6157
vn 0.3569 0.2657 -0.8956
vn 0.4107 0.1623 -0.8972
vn 0.8267 0.3654 -0.4278
vn 0.5282 0.1101 0.8419
vn 0.4353 -0.0010 -0.9003
vn 0.8375 0.3491 -0.4204
vn 0.2748 0.9582 0.0794
vn 0.8214 0.5417 0.1784
vn 0.8941 0.4049 0.1913
vn 0.7064 0.5962 -0.3815
vn 0.9576 0.0983 -0.2708
vn 0.6669 -0.4491 0.5946
vn 0.7356 0.6570 0.1649
vn 0.6676 0.7442 0.0208
vn 0.8943 0.3403 -0.2905
vn 0.6856 -0.6918 0.2266
vn 0.8749 -0.4141 0.2513
vn -0.3929 0.7181 0.5745
vn 0.4594 0.7862 0.4134
vn -0.9660 0.2337 0.1105
vn 0.8639 0.3755 -0.3357
vn 0.3622 -0.0203 -0.9319
vn -0.5864 -0.4113 -0.6978
vn -0.1126 -0.5148 -0.8499
vn 0.3092 -0.8551 -0.4161
vn -0.2050 -0.8860 -0.4160
vn 0.3232 -0.3811 -0.8662
vn 0.5065 -0.1809 -0.8430
vn 0.9067 -0.3435 -0.2447
vn 0.7248 -0.6165 -0.3077
vn 0.6330 0.2612 -0.7288
vn 0.9630 -0.0313 -0.2676
vn -0.9510 0.1781 0.2527
vn -0.8995 0.2355 0.3681
vn -0.8089 0.5646 -0.1641
vn -0.7849 0.3629 -0.5022
vn 0.5803 0.2987 0.7576
vn 0.9285 0.2355 0.2870
vn 0.8284 0.4547 0.3270
vn 0.5524 0.3202 0.7696
vn -0.6842 0.1390 0.7159
vn -0.3513 0.0820 0.9327
vn -0.2746 0.2617 0.9253
vn -0.8334 0.3972 0.3841
vn -0.4096 0.0527 -0.9107
vn -0.1045 0.0974 -0.9897
vn -0.7012 0.4720 -0.5344
vn -0.6626 0.5298 -0.5294
vn -0.7615 0.6479 0.0182
vn -0.6170 0.7582 0.2108
vn -0.0177 0.2255 -0.9741
vn -0.1598 -0.9306 -0.3293
vn -0.6526 -0.4098 -0.6373
vn -0.7090 -0.0351 -0.7044
vn -0.6390 -0.2099 -0.7400
vn -0.9274 0.3644 0.0847
vn -0.5697 0.3696 -0.7341
vn -0.6654 0.2072 -0.7171
vn -0.5089 0.0485 -0.8594
vn -0.4032 -0.2989 -0.8649
vn 0.4771 0.2633 -0.8385
vn 0.3194 0.4991 -0.8056
vn 0.0600 0.4262 -0.9027
vn 0.1224 -0.8248 0.5520
vn 0.2211 -0.8170 0.5326
vn -0.2571 0.2336 0.9377
vn 0.1208 0.0695 0.9902
vn 0.8695 -0.2674 0.4153
vn 0.4068 -0.5936 0.6944
vn -0.4791 -0.1802 0.8591
vn -0.6762 -0.0677 0.7336
vn -0.1069 -0.6002 0.7926
vn -0.0670 -0.5956 0.8005
vn -0.3257 -0.2691 0.9064
vn -0.2898 -0.3720 0.8818
vn -0.6020 -0.0552 0.7966
vn -0.4460 -0.1841 0.8759
vn -0.6463 0.0014 0.7631
vn 0.4731 -0.7637 -0.4392
vn -0.7831 0.4294 0.4499
vn -0.7786 0.1806 0.6009
vn -0.9778 0.0589 -0.2010
vn -0.9863 0.0090 -0.1647
vn -0.9248 0.1953 -0.3265
vn -0.3658 -0.9138 -0.1765
vn -0.0667 -0.7445 0.6643
vn -0.5866 -0.4228 -0.6907
vn -0.9182 0.3756 0.1256
vn -0.9862 0.0875 0.1403
vn -0.7704 0.4132 -0.4855
vn -0.7225 0.3687 -0.5848
vn -0.4492 -0.3127 -0.8370
vn -0.3165 -0.5759 -0.7538
vn -0.5362 -0.6838 -0.4950
vn -0.9342 0.0880 -0.3456
vn 0.7097 -0.4207 -0.5651
vn 0.6431 -0.6282 -0.4379
vn 0.3250 0.4322 0.8412
vn 0.1207 0.4101 0.9040
vn 0.8010 0.1355 0.5831
vn 0.9543 -0.0258 0.2978
vn -0.7380 0.4753 0.4790
vn -0.6386 0.4766 0.6041
vn -0.0008 -0.9995 0.0320
vn -0.2037 -0.9771 -0.0614
vn 0.6285 -0.7757 -0.0575
vn -0.7406 -0.2708 -0.6150
vn -0.6318 -0.1949 0.7503
vn -0.5954 -0.1662 0.7861
vn -0.9814 -0.0957 0.1665
vn 0.5445 -0.3911 -0.7420
vn 0.7538 -0.3312 -0.5675
vn 0.4290 0.8801 0.2034
vn 0.8829 0.4592 -0.0978
vn -0.5987 0.3011 -0.7423
vn -0.7375 -0.0279 0.6747
vn 0.5969 0.4603 0.6572
vn 0.5581 0.4832 0.6746
vn 0.8328 0.0313 0.5527
vn -0.3537 0.3407 0.8711
vn -0.9793 -0.0537 0.1950
vn -0.9171 0.1869 0.3522
vn -0.2349 0.3540 0.9053
vn 0.3457 0.6520 0.6749
vn 0.3719 0.6333 0.6787
vn 0.2098 0.1803 0.9610
vn 0.2378 0.1296 0.9626
vn 0.7853 0.4192 0.4556
vn 0.7832 0.2231 0.5804
vn 0.3206 0.6938 0.6449
vn 0.0822 0.2710 0.9591
vn 0.3205 0.6525 0.6867
vn 0.2265 0.2717 0.9354
vn 0.0470 0.1451 0.9883
vn 0.1302 0.1014 0.9863
vn -0.1485 0.0328 0.9884
vn -0.0415 -0.2199 0.9746
vn 0.2278 -0.0379 0.9730
vn 0.1136 -0.4961 0.8608
vn 0.2924 -0.2589 0.9206
vn -0.7672 0.2940 0.5701
vn -0.4195 0.8961 0.1453
vn -0.2437 0.4479 -0.8603
vn -0.8504 -0.5137 -0.1142
vn -0.8510 -0.1652 0.4984
vn -0.4882 -0.3275 -0.8090
vn -0.9521 0.2992 -0.0626
vn -0.8829 -0.4605 -0.0920
vn -0.6689 -0.4800 0.5676
vn -0.0079 -0.5391 0.8422
vn 0.6361 -0.6018 0.4829
vn 0.3775 0.9256 0.0257
vn 0.0464 0.8555 -0.5157
vn -0.5854 0.6074 -0.5370
vn -0.3518 -0.4912 -0.7969
vn 0.5540 0.0833 -0.8283
vn -0.9067 -0.3919 0.1558
vn -0.8918 -0.4339 0.1284
vn 0.3488 0.3899 0.8522
vn 0.2769 0.5136 0.8121
vn -0.5437 0.0546 0.8375
vn -0.4712 0.0059 0.8820
vn 0.5265 0.8409 -0.1251
vn -0.9660 -0.1852 0.1806
vn -0.7398 0.5996 0.3051
vn -0.4109 0.8410 -0.3519
vn -0.9790 0.1694 -0.1137
vn 0.1014 0.7788 0.6190
vn -0.6377 0.2600 0.7251
vn 0.8362 0.5474 -0.0342
vn 0.8239 0.5666 -0.0066
vn -0.2099 0.9635 0.1661
vn -0.9367 -0.3405 0.0819
vn -0.3867 -0.3309 -0.8608
vn 0.4486 0.2046 -0.8700
vn 0.6449 0.7428 -0.1796
vn -0.5800 0.2608 -0.7717
vn -0.3974 -0.1650 0.9027
vn -0.0711 0.8260 -0.5591
vn -0.4689 0.0932 -0.8783
vn -0.7840 -0.1331 -0.6063
vn -0.2808 0.7044 -0.6519
vn -0.5038 -0.7935 0.3415
vn -0.1617 -0.0792 0.9837
vn 0.9102 0.2197 0.3511
vn 0.1325 -0.5882 0.7978
vn 0.4555 0.8392 0.2972
vn 0.5982 0.7597 -0.2550
vn -0.4589 -0.8877 -0.0367
vn -0.7055 -0.2851 0.6488
vn 0.4087 -0.5485 0.7294
vn -0.5456 -0.8057 0.2307
vn -0.6214 -0.7793 0.0814
vn 0.3768 0.9215 -0.0936
vn 0.6203 0.5304 0.5779
vn 0.7109 -0.6883 -0.1445
vn -0.0074 -0.7629 -0.6464
vn -0.2140 -0.9224 -0.3214
vn -0.0450 -0.9988 -0.0191
vn -0.5403 -0.6606 -0.5212
vn 0.7309 0.3636 0.5776
vn 0.7573 -0.1725 0.6299
vn 0.9321 -0.3580 0.0558
vn 0.9850 0.0150 -0.1720
vn -0.4528 -0.8533 -0.2586
vn -0.5087 -0.8544 -0.1057
vn -0.9408 -0.3205 -0.1106
vn -0.8969 -0.4232 -0.1284
vn -0.7117 -0.6404 -0.2888
vn -0.6843 -0.7219 -0.1028
vn 0.4627 0.8672 0.1843
vn -0.0979 0.9902 -0.0999
vn -0.7289 0.5848 -0.3559
vn -0.1073 0.9926 0.0572
vn -0.7749 0.6295 -0.0564
vn -0.7035 0.6939 0.1535
vn 0.0564 0.9459 0.3195
vn 0.4860 0.7501 0.4485
vn 0.7925 0.4259 0.4364
vn 0.4225 -0.4371 -0.7940
vn 0.9321 0.2962 -0.2084
vn -0.2404 -0.8365 -0.4923
vn -0.2194 -0.9711 -0.0938
vn 0.3302 -0.1938 0.9238
vn 0.6528 -0.6664 0.3603
vn -0.4254 -0.8733 0.2375
vn 0.7488 0.4476 0.4888
vn -0.0475 0.0173 0.9987
vn 0.1652 -0.5818 0.7964
vn -0.8815 0.0621 -0.4682
vn -0.2893 0.8721 -0.3946
vn 0.3772 -0.6453 -0.6643
vn 0.3434 -0.9269 -0.1512
vn -0.3706 -0.9216 -0.1158
vn -0.4665 -0.8124 -0.3500
vn -0.5266 -0.7244 0.4449
vn -0.3399 -0.8198 -0.4609
vn -0.3887 0.6279 0.6743
vn -0.3108 0.6187 0.7216
vn -0.8396 -0.1804 0.5124
vn -0.0592 -0.5456 -0.8360
vn -0.1056 -0.5848 -0.8042
vn 0.0749 0.4376 -0.8960
vn 0.2691 0.5555 -0.7868
vn -0.5541 -0.8236 -0.1206
vn 0.0905 0.9893 0.1145
vn 0.0068 0.9996 -0.0289
vn -0.7018 -0.5660 0.4326
vn -0.7135 0.6224 0.3218
vn -0.7166 0.1676 0.6771
vn -0.2492 0.4878 0.8366
vn -0.0177 0.8166 0.5769
vn -0.9180 -0.3946 -0.0400
vn -0.7767 -0.5932 0.2120
vn -0.5250 -0.0724 0.8480
vn -0.7116 0.4579 0.5329
vn 0.6176 -0.6710 0.4102
vn 0.0605 -0.6369 0.7686
vn -0.2693 -0.9567 0.1104
vn 0.0159 -0.9746 -0.2236
vn -0.0397 -0.9667 -0.2528
vn -0.1225 -0.9902 0.0677
vn 0.0763 0.3507 0.9334
vn 0.3841 -0.6886 0.6151
vn 0.6506 -0.0684 0.7564
vn 0.8709 0.1717 0.4604
vn 0.7396 -0.6580 0.1416
vn 0.2016 0.7252 0.6584
vn 0.3104 0.0111 0.9505
vn -0.8999 -0.4360 -0.0120
vn -0.9317 -0.2772 -0.2345
vn 0.5982 0.2798 0.7509
vn 0.0323 -0.1287 0.9912
vn -0.8735 0.3715 -0.3146
vn 0.0723 0.5941 -0.8011
vn 0.1702 0.9130 -0.3709
vn 0.2534 0.0500 0.9661
vn 0.3257 -0.0843 0.9417
vn 0.4175 0.5182 0.7465
vn 0.6067 0.5179 0.6031
vn 0.5376 -0.4685 0.7011
vn 0.5372 -0.1102 0.8362
vn 0.7647 -0.3216 0.5584
vn 0.6819 -0.0046 0.7314
vn 0.3510 -0.7069 0.6141
vn 0.5050 0.3515 0.7883
vn 0.7079 0.6276 0.3239
vn 0.4453 0.8072 0.3874
vn 0.2700 0.8078 0.5241
vn 0.3781 0.1563 0.9125
vn 0.3464 0.2991 0.8891
vn 0.2869 0.4533 0.8439
vn 0.6482 -0.3595 0.6713
vn 0.9022 -0.2143 0.3743
vn 0.4910 -0.1614 0.8561
vn 0.2120 0.7169 0.6642
vn 0.5642 -0.7034 0.4324
vn 0.2754 -0.4344 0.8576
vn 0.0491 0.9624 0.2673
vn 0.4051 0.5129 0.7568
vn -0.0478 0.7969 0.6022
vn 0.8357 0.4325 -0.3384
vn 0.6712 0.6891 -0.2731
vn -0.0395 0.4658 0.8840
vn 0.5795 0.3807 0.7206
vn 0.0121 0.1957 0.9806
vn 0.9403 0.1056 -0.3237
vn 0.6148 0.3399 0.7117
vn 0.0598 -0.0449 0.9972
vn 0.3089 0.9511 -0.0029
vn 0.4227 0.6263 0.6550
vn 0.7027 0.1065 0.7034
vn 0.8706 -0.4917 -0.0136
vn 0.6067 0.7478 0.2696
vn 0.6893 0.3026 0.6582
vn 0.2124 0.6216 -0.7540
vn 0.6497 0.7540 -0.0972
vn -0.5715 0.2068 -0.7941
vn 0.3678 0.5258 0.7670
vn -0.4084 0.1729 0.8963
vn -0.9668 -0.2522 -0.0410
vn -0.9416 -0.2703 -0.2010
vn -0.9257 0.3217 -0.1988
vn -0.9422 0.3264 -0.0762
vn 0.9675 0.2482 -0.0493
vn 0.5299 0.8466 -0.0508
vn 0.5124 0.8519 0.1080
vn 0.9468 0.2502 0.2022
vn -0.3244 0.9444 -0.0534
vn -0.2761 0.9592 -0.0610
vn 0.3642 -0.9156 -0.1703
vn 0.2381 -0.6241 -0.7442
vn 0.7910 -0.2510 -0.5580
vn 0.9050 -0.3719 -0.2068
vn 0.1225 -0.0746 -0.9897
vn -0.1423 0.6276 -0.7654
vn 0.5940 0.6126 -0.5215
vn 0.7792 0.0989 -0.6189
vn -0.5880 -0.6262 -0.5120
vn -0.7518 -0.2134 -0.6239
vn -0.7946 0.2253 -0.5639
vn 0.3608 -0.9294 -0.0777
vn 0.9186 -0.3858 -0.0859
vn -0.6004 -0.7975 -0.0600
vn -0.5544 -0.8273 -0.0908
vn -0.3140 0.9458 -0.0829
vn 0.5845 0.8009 -0.1301
vn -0.9273 0.3695 -0.0596
vn 0.9007 -0.3890 0.1936
vn 0.9618 0.2109 -0.1746
vn -0.9751 -0.2216 0.0070
vn -0.5504 -0.8268 -0.1162
vn 0.4062 -0.9095 0.0888
vn -0.8991 -0.2529 -0.3574
vn -0.8905 0.3259 -0.3175
vn 0.8627 0.2492 0.4401
vn 0.4633 0.8472 0.2600
vn -0.3170 0.9444 -0.0877
vn 0.2619 -0.9146 0.3080
vn 0.7407 -0.3704 0.5606
vn 0.4930 -0.2482 0.8339
vn -0.0880 -0.6210 0.7789
vn -0.2934 -0.0707 0.9534
vn 0.4577 0.1019 0.8833
vn 0.3289 0.6151 0.7166
vn -0.4427 0.6304 0.6377
vn -0.7466 -0.6247 0.2288
vn -0.9415 -0.2116 0.2622
vn -0.9556 0.2268 0.1883
vn 0.2966 -0.9288 0.2221
vn 0.8026 -0.3847 0.4559
vn -0.5730 -0.7977 -0.1880
vn -0.5436 -0.8274 -0.1409
vn 0.4807 0.8019 0.3549
vn -0.3197 0.9458 -0.0565
vn -0.8701 0.3690 -0.3267
vn 0.8062 0.2123 0.5522
vn -0.8870 -0.2225 -0.4047
vn -0.3044 0.2157 0.9278
vn 0.1549 0.7857 0.5989
vn 0.5832 0.5835 -0.5652
vn 0.6203 0.5629 -0.5462
vn 0.2842 -0.2050 -0.9366
vn 0.4568 0.8720 0.1759
vn -0.1954 -0.7602 -0.6197
vn -0.1697 -0.7764 -0.6070
vn -0.6361 -0.5567 0.5344
vn 0.3189 -0.2279 -0.9200
vn -0.4435 -0.8797 -0.1715
vn -0.6046 -0.5760 0.5501
vn -0.4687 -0.8643 -0.1826
vn -0.3370 0.2365 0.9113
vn 0.4272 0.8893 0.1630
vn -0.5810 -0.5893 0.5614
vn -0.4283 -0.8902 -0.1551
vn -0.2804 0.2025 0.9383
vn 0.2013 0.7580 0.6205
vn 0.6442 0.5652 -0.5153
vn 0.4749 0.8605 0.1843
vn -0.1574 -0.7917 -0.5903
vn 0.3468 -0.2354 -0.9079
vn 0.1724 0.7754 0.6075
vn 0.4452 0.8790 0.1708
vn 0.6059 0.5723 -0.5526
vn 0.3065 -0.2187 -0.9264
vn -0.1785 -0.7713 -0.6109
vn -0.4514 -0.8751 -0.1743
vn -0.6142 -0.5697 0.5460
vn -0.3151 0.2229 0.9225
vn 0.1828 0.7691 0.6124
vt 0.571346 1.000000
vt 1.000000 1.000000
vt 1.000000 1.000000
vt 0.500000 1.000001
vt 0.500000 1.000000
vt 1.000000 1.000000
vt 1.000000 1.000000
vt 0.500000 1.000000
vt 1.000000 1.000000
vt 0.500000 0.999999
vt 0.000000 0.465031
vt 0.000000 1.000000
vt 0.000000 0.999999
vt 0.000000 0.606657
vt 0.000000 0.821293
vt 0.000000 0.599481
vt 0.000000 0.582868
vt 0.000000 0.780427
vt 0.000000 0.570022
vt 0.000000 0.987417
vt 0.000000 0.945673
vt 0.000000 0.496033
vt 0.000000 0.999999
vt 0.000000 1.000000
vt 0.000000 1.000000
vt 0.155336 0.431363
vt 0.168793 0.382098
vt 0.000000 1.000000
vt 0.000000 1.000000
vt 0.000000 1.000000
vt 0.000000 1.000000
vt 1.039863 1.000000
vt 0.625766 1.000000
vt 0.625766 1.000000
vt 0.000000 0.492859
vt 0.000000 1.000000
vt 0.513744 1.000000
vt 0.000000 0.989743
vt 0.000000 0.993508
vt 0.000000 0.992041
vt 0.000000 0.988026
vt 0.000000 1.000001
vt 0.000000 0.006045
vt 0.000000 0.024158
vt 0.000000 0.035550
vt 0.000000 0.007493
vt 1.000000 1.000000
vt 0.385491 0.012463
vt 0.809351 0.327618
vt 0.822253 0.633483
vt 0.423316 0.041588
vt 0.000000 0.260947
vt 0.000000 0.269806
vt 0.000000 0.029687
vt 0.000000 0.259608
vt 0.000000 0.055773
vt 0.000000 0.014393
vt 0.000000 0.000000
vt -0.000352 0.049786
vt -0.007008 0.145902
vt 0.995548 0.987081
vt 0.964852 0.892802
vt 0.367906 0.006800
vt 0.398872 0.021521
vt 0.384538 0.016998
vt 0.669976 0.289050
vt 0.816651 0.160758
vt 0.551188 0.392951
vt 1.001671 1.018633
vt 0.844626 0.217696
vt 1.000000 0.000000
vt 1.000000 1.000000
vt 0.994666 0.983731
vt 0.147381 0.444805
vt -0.006517 1.025338
vt 0.000000 1.000000
vt 0.128403 0.467602
vt 1.000000 1.000000
vt 0.774259 0.146375
vt 0.816651 0.160758
vt 0.957461 0.805286
vt 0.953230 0.785919
vt 0.465745 0.059868
vt 0.765918 0.222681
vt 0.765917 0.222681
vt 0.458402 0.057448
vt 0.375994 0.011187
vt 0.341026 -0.000340
vt 0.484357 0.069964
vt 0.838818 0.262222
vt 0.379819 0.013262
vt -0.037164 1.000000
vt 0.621789 1.000000
vt 0.409356 -0.007262
vt 1.019930 1.000000
vt 0.189627 0.072713
vt 0.086418 0.471230
vt 0.090837 0.102580
vt 0.143065 0.000000
vt 0.232244 0.000000
vt 0.048818 0.137000
vt 0.006435 0.156971
vt 0.050348 0.136279
vt 0.000000 0.288257
vt 0.000000 0.424764
vt 0.000000 0.297956
vt 0.000000 0.237783
vt 0.000000 0.290378
vt 0.000000 0.406809
vt 0.000000 0.952006
vt 0.000000 0.953545
vt 0.000000 0.981767
vt 0.000000 0.977517
vt 0.000000 0.962468
vt 0.000000 0.961311
vt 0.000000 0.734721
vt 0.000000 0.782688
vt 0.000000 0.580884
vt 0.000000 0.568166
vt 0.000000 0.957348
vt 0.000000 0.954623
vt 0.000000 0.903138
vt 0.000000 0.873197
vt 0.000000 0.721776
vt 0.000000 0.688338
vt 0.000000 0.557668
vt 0.000000 0.360068
vt 0.000000 0.258832
vt 0.000000 0.408250
vt 0.000000 0.077259
vt 0.000000 0.070876
vt 0.003045 0.517724
vt 0.000884 0.968952
vt 0.082477 0.472339
vt 0.091201 0.117029
vt 0.003590 0.971070
vt 0.816651 0.160758
vt 0.379820 0.013262
vt 0.816651 0.160758
vt 0.484357 0.069963
vt 0.838818 0.262222
vt 0.000000 0.989204
vt 0.000000 0.996442
vt 0.000000 0.999179
vt 0.000000 0.993179
vt 0.000000 0.993325
vt 0.000000 0.988549
vt 0.000000 0.969018
vt 0.000000 0.968261
vt 0.000000 0.964783
vt 0.000000 0.948928
vt 0.000000 0.964783
vt 0.000000 0.985872
vt 0.000000 0.973268
vt 0.000000 0.951623
vt 0.000000 0.971987
vt 0.000000 0.974021
vt 0.000000 0.948927
vt 0.000000 0.964782
vt 0.000000 0.979207
vt 0.000000 0.979208
vt 0.000000 0.965548
vt 0.000000 0.988549
vt 0.000000 0.968260
vt 0.000000 0.993325
vt 0.000000 0.979207
vt 0.000000 0.987325
vt 0.399263 0.020419
vt 0.554125 0.000000
vt 0.389181 0.014071
vt 0.002967 0.533921
vt 0.002890 0.550117
vt 0.071763 0.529331
vt 0.077120 0.500835
vt 0.091201 0.117029
vt 0.006435 0.156971
vt 0.066406 0.557827
vt 0.003390 0.970913
vt 0.003290 0.970835
vt 0.091201 0.117029
vt 0.082873 0.456209
vt 0.003490 0.970991
vt 0.014495 0.153173
vt 0.013325 0.153724
vt 0.083524 0.429692
vt 0.010471 0.925644
vt 0.010972 0.922640
vt 0.010744 0.924007
vt 0.002886 0.556357
vt 0.001572 0.876484
vt 0.000884 0.968952
vt 0.002812 0.566314
vt 0.002237 0.970011
vt 0.001572 0.876484
vt 0.048889 0.136966
vt 0.048105 0.137336
vt 0.083292 0.120756
vt 0.044962 0.138817
vt 0.048499 0.137150
vt 0.048893 0.136964
vt 0.000884 0.968952
vt 0.002812 0.566314
vt 0.084454 0.120208
vt 0.003590 0.971070
vt 0.003590 0.971070
vt 0.073233 0.530776
vt 0.003045 0.517724
vt 0.001572 0.876484
vt 0.001572 0.876484
vt 0.034144 0.524268
vt 0.089743 0.117716
vt 0.088285 0.118403
vt 0.003045 0.517724
vt 0.003045 0.517724
vt 0.004183 0.936489
vt 0.392015 0.011307
vt 0.000000 0.977855
vt 0.000000 0.990851
vt 0.000000 0.362578
vt 0.000000 0.365618
vt 0.000000 0.276024
vt 0.000000 0.167143
vt 0.000000 0.203592
vt 0.000000 0.141625
vt 0.000000 0.215022
vt 0.000000 0.762281
vt 0.000000 0.836928
vt 0.000000 0.034645
vt 0.000000 0.051793
vt 0.000000 0.344092
vt 0.000000 0.260776
vt 0.000000 0.281838
vt 0.000000 0.367320
vt 0.000000 0.818782
vt 0.000000 0.608099
vt 0.000000 0.407196
vt 0.000000 0.385557
vt 0.000000 0.807260
vt 0.000000 0.763301
vt 0.000000 0.836539
vt 0.000000 0.883028
vt 0.000000 0.842156
vt 0.000000 0.695123
vt 0.000000 0.320727
vt 0.000000 0.278650
vt 0.000000 0.886883
vt 0.000000 0.840816
vt 0.000000 0.254723
vt 0.000000 0.276002
vt 0.000000 0.274847
vt 0.000000 0.252081
vt 0.000000 0.581487
vt 0.000000 0.366135
vt 0.000000 0.316974
vt 0.000000 0.315336
vt 0.000000 0.406927
vt 0.000000 0.607599
vt 0.000000 0.607381
vt 0.000000 0.782001
vt 0.000000 0.817041
vt 0.000000 0.816280
vt 0.000000 0.277791
vt 0.000000 0.811721
vt 0.000000 0.618971
vt 0.000000 0.924751
vt 0.000000 0.888566
vt 0.000000 0.860099
vt 0.000000 0.883675
vt 0.000000 0.836810
vt 0.000000 0.902583
vt 0.000000 0.927750
vt 0.000000 0.840231
vt 0.000000 0.128535
vt 0.000000 0.195163
vt 0.000000 0.762591
vt 0.000000 0.994975
vt 0.000000 0.982539
vt 0.000000 0.991461
vt 0.000000 0.963625
vt 0.000000 0.950467
vt 0.000000 0.240049
vt 0.000000 0.246559
vt 0.000000 0.278522
vt 0.000000 0.278521
vt 0.000000 0.278522
vt 0.000000 0.205092
vt 0.000000 0.226403
vt 0.000000 0.201602
vt 0.000000 0.201550
vt 0.000000 0.201571
vt 0.000000 0.267870
vt 0.000000 0.236481
vt 0.000000 0.236481
vt 0.533520 0.891438
vt 0.683133 0.977277
vt 0.683074 0.999578
vt 0.533862 0.999922
vt 0.380296 0.061363
vt 0.429270 0.046070
vt 0.431364 0.095110
vt 0.360660 0.246544
vt 0.415863 0.248980
vt 0.415587 0.294021
vt 0.530117 0.257753
vt 0.648318 0.418554
vt 0.648702 0.441054
vt 0.529249 0.390928
vt 0.330828 0.419387
vt 0.395945 0.410243
vt 0.398358 0.451833
vt 0.531487 0.131427
vt 0.670728 0.196849
vt 0.670752 0.219189
vt 0.530965 0.250216
vt 0.296441 0.648221
vt 0.375384 0.604717
vt 0.375374 0.640513
vt 0.538557 0.519279
vt 0.706058 0.603029
vt 0.705747 0.625000
vt 0.538519 0.625000
vt 0.373458 0.684075
vt 0.373686 0.727546
vt 0.531517 0.396475
vt 0.705871 0.580871
vt 0.538557 0.519279
vt 0.705465 0.647268
vt 0.533447 0.751553
vt 0.531597 0.759183
vt 0.659521 0.836747
vt 0.659469 0.859020
vt 0.532609 0.886884
vt 0.355626 0.929229
vt 0.413373 0.916008
vt 0.413494 0.952649
vt 0.385689 0.090663
vt 0.432709 0.143770
vt 0.694098 0.855550
vt 0.750000 0.625000
vt 0.722900 0.999486
vt 0.669903 0.114105
vt 0.669921 0.091770
vt 0.706885 0.111734
vt 0.680576 0.455212
vt 0.707889 0.212488
vt 0.750000 0.625000
vt 0.531429 0.016974
vt 0.531456 0.128340
s 1
usemtl Slugcat
f 135/1/1 131/2/2 2/3/3 44/4/4
f 45/5/5 4/6/6 6/7/7 46/8/8
f 46/8/8 6/7/7 8/9/9 47/10/10
f 40/11/11 11/12/12 13/13/13 41/14/14
f 42/19/19 110/20/20 244/21/21 245/22/22
f 44/4/4 45/5/5 3/23/23 1/24/24
f 223/25/25 226/26/26 49/27/27 52/12/28
f 6/7/7 4/6/6 24/3/29 26/9/30
f 41/14/14 13/13/13 110/20/20 42/19/19
f 3/23/23 5/28/31 25/29/32 23/12/33
f 110/20/20 13/13/13 34/30/34 36/31/35
f 224/32/36 228/33/37 51/34/38 53/6/39
f 94/35/40 97/36/41 11/12/12 40/11/11
f 47/10/10 8/9/9 28/9/42 48/37/43
f 132/12/44 1/24/24 21/12/45 134/12/46
f 11/12/12 97/36/41 30/31/47 32/12/48
f 8/9/9 6/7/7 26/9/30 28/9/42
f 314/38/49 320/39/50 113/40/51 117/41/52
f 5/28/31 7/25/53 27/42/54 25/29/32
f 14/43/55 249/44/56 248/45/57 87/46/58
f 4/6/6 2/3/3 22/47/59 24/3/29
f 13/13/13 11/12/12 32/12/48 34/30/34
f 219/48/60 221/49/61 64/50/62 63/51/63
f 1/24/24 3/23/23 23/12/33 21/12/45
f 80/52/64 78/53/65 41/14/14 42/19/19
f 85/54/66 80/52/64 242/55/67 243/56/68
f 12/57/69 85/54/66 35/58/70 33/58/71
f 10/59/72 81/58/73 77/58/74 31/58/75
f 95/60/76 10/59/72 31/58/75 29/58/77
f 7/25/53 47/10/10 48/37/43 27/42/54
f 2/3/3 4/6/6 45/5/5 44/4/4
f 5/28/31 46/8/8 47/10/10 7/25/53
f 3/23/23 45/5/5 46/8/8 5/28/31
f 132/12/44 135/1/1 44/4/4 1/24/24
f 221/49/61 224/61/36 66/62/78 64/50/62
f 50/63/79 219/64/60 63/51/63 70/65/80
f 54/66/81 50/63/79 70/65/80 72/67/82
f 228/33/37 223/25/25 52/12/28 51/34/38
f 54/66/81 53/6/39 51/34/38 55/68/83
f 50/63/79 54/66/81 55/68/83 49/27/27
f 55/68/83 51/34/38 52/12/28 49/27/27
f 225/69/84 220/70/85 18/71/86 20/9/87
f 125/72/88 66/62/78 224/73/36 53/6/39
f 227/74/89 222/75/90 128/76/91 126/77/92
f 68/78/93 71/79/94 61/80/95 59/81/96
f 131/2/2 225/2/84 20/9/87 133/6/97
f 67/9/98 68/78/93 59/81/96 58/82/99
f 62/83/100 65/84/101 106/85/102 107/86/103
f 69/87/104 62/83/100 107/86/103 108/88/105
f 56/89/106 57/90/107 61/80/95 60/91/108
f 57/90/107 58/82/99 59/81/96 61/80/95
f 65/84/101 67/9/98 58/82/99 57/90/107
f 222/92/90 229/93/109 135/1/1 132/12/44
f 63/51/63 64/50/62 65/84/101 62/83/100
f 64/50/62 66/62/78 67/9/98 65/84/101
f 226/26/26 219/94/60 50/63/79 49/27/27
f 69/87/104 71/79/94 72/67/82 70/65/80
f 62/83/100 69/87/104 70/65/80 63/51/63
f 229/93/109 225/95/84 131/2/2 135/1/1
f 130/96/110 126/77/92 99/97/111 98/98/112
f 130/96/110 98/98/112 75/99/113 129/100/114
f 166/101/115 148/102/116 157/102/117 163/103/118
f 126/77/92 128/76/91 96/31/119 99/97/111
f 81/58/73 82/104/120 78/53/65 12/57/69
f 10/59/72 40/11/11 82/104/120 81/58/73
f 77/58/74 81/58/73 12/57/69 33/58/71
f 79/105/121 289/106/122 288/107/123 268/108/124 252/109/125
f 78/53/65 82/104/120 40/11/11 41/14/14
f 12/57/69 78/53/65 80/52/64 85/54/66
f 319/110/126 305/111/127 304/112/128 317/113/129
f 249/44/56 14/43/55 85/54/66 243/56/68
f 312/114/130 309/115/131 305/111/127 319/110/126
f 14/43/55 87/46/58 35/58/70 85/54/66
f 286/116/132 261/117/133 272/118/134 279/119/135
f 112/120/136 246/121/137 111/122/138 244/21/21
f 281/123/139 286/124/132 250/125/140 111/122/138
f 89/126/141 90/127/142 83/128/143 88/129/144
f 90/127/142 93/130/145 84/131/146 83/128/143
f 100/102/147 39/132/148 94/35/40 95/60/76
f 97/36/41 96/31/119 74/12/149 30/31/47
f 39/132/148 9/133/150 97/36/41 94/35/40
f 76/134/151 101/135/152 98/98/112 99/97/111
f 73/136/153 76/134/151 99/97/111 96/31/119
f 95/60/76 94/35/40 40/11/11 10/59/72
f 109/137/154 108/88/105 104/138/155 105/139/156
f 56/89/106 60/91/108 104/138/155 102/140/157
f 107/86/103 106/85/102 103/141/158 102/140/157
f 65/84/101 57/90/107 103/141/158 106/85/102
f 60/91/108 61/80/95 105/139/156 104/138/155
f 61/80/95 71/79/94 109/137/154 105/139/156
f 57/90/107 56/89/106 102/140/157 103/141/158
f 71/79/94 69/87/104 108/88/105 109/137/154
f 304/112/128 305/111/127 244/21/21 110/20/20
f 306/142/159 307/143/160 86/12/161 38/144/162
f 308/145/163 304/112/128 110/20/20 36/31/35
f 309/115/131 306/142/159 38/144/162 112/120/136
f 305/111/127 309/115/131 112/120/136 244/21/21
f 307/143/160 308/145/163 36/31/35 86/12/161
f 117/41/52 113/40/51 15/146/164 122/147/165
f 116/148/166 117/41/52 122/147/165 121/149/167
f 115/150/168 118/151/169 123/151/170 120/152/171
f 310/153/172 306/142/159 309/115/131 312/114/130
f 316/154/173 314/38/49 117/41/52 116/148/166
f 240/155/174 237/156/175 124/157/176
f 120/152/171 123/151/170 241/158/177 234/159/178
f 113/40/51 114/160/179 119/161/180 15/146/164
f 114/160/179 115/150/168 120/152/171 119/161/180
f 118/151/169 116/148/166 121/149/167 123/151/170
f 235/162/181 240/155/174 124/157/176
f 121/149/167 122/147/165 239/163/182 236/164/183
f 122/147/165 15/146/164 231/165/184 239/163/182
f 123/151/170 121/149/167 236/164/183 241/158/177
f 119/161/180 120/152/171 234/159/178 233/166/185
f 237/156/175 238/167/186 124/157/176
f 72/67/82 125/72/88 53/6/39 54/66/81
f 71/79/94 68/78/93 125/72/88 72/67/82
f 108/88/105 107/86/103 102/140/157 104/138/155
f 98/98/112 95/60/76 29/58/77 75/99/113
f 96/31/119 128/76/91 127/12/187 74/12/149
f 218/168/188 130/96/110 129/100/114 17/169/189
f 220/70/85 218/170/188 17/169/189 18/71/86
f 68/78/93 67/9/98 66/62/78 125/72/88
f 222/25/90 132/12/44 134/12/46 19/12/190
f 128/76/91 222/25/90 19/12/190 127/12/187
f 2/3/3 131/2/2 133/6/97 22/47/59
f 9/133/150 73/136/153 96/31/119 97/36/41
f 98/98/112 101/135/152 100/102/147 95/60/76
f 324/171/191 325/172/192 323/133/193 322/133/194
f 330/173/195 331/174/196 329/175/197 328/175/198
f 326/176/199 328/175/198 329/175/197 327/102/200
f 183/177/201 330/173/195 328/175/198 186/175/202
f 331/174/196 332/178/203 176/179/204 178/134/205
f 327/102/200 329/175/197 177/180/206 175/102/207
f 156/180/208 158/134/209 174/181/210 173/180/211
f 322/133/194 323/133/193 332/178/203 333/182/212
f 202/183/213 203/184/214 152/184/215 154/183/216
f 140/185/217 138/186/218 144/136/219 146/134/220
f 158/134/209 160/187/221 164/188/222 174/181/210
f 163/103/118 157/102/117 156/180/208 173/180/211
f 136/189/223 139/190/224 159/191/225 161/192/226
f 165/193/227 139/190/224 145/194/228 167/193/229
f 139/190/224 136/189/223 142/132/230 145/194/228
f 138/186/218 165/193/227 167/193/229 144/136/219
f 136/189/223 148/102/116 150/102/231 142/132/230
f 169/195/232 137/184/233 148/102/116 166/101/115
f 149/135/234 140/185/217 146/134/220 151/135/235
f 170/196/236 147/197/237 151/135/235 168/198/238
f 137/184/233 143/183/239 150/102/231 148/102/116
f 205/199/240 202/183/213 154/183/216 172/200/241
f 176/179/204 179/201/242 159/191/225 160/187/221
f 180/202/243 175/102/207 157/102/117 161/192/226
f 179/201/242 180/202/243 161/192/226 159/191/225
f 178/134/205 176/179/204 160/187/221 158/134/209
f 204/195/244 201/203/245 153/203/246 171/195/247
f 203/184/214 204/195/244 171/195/247 152/184/215
f 171/195/247 153/203/246 155/197/248 172/200/241
f 147/197/237 141/203/249 149/135/234 151/135/235
f 143/183/239 170/196/236 168/198/238 150/102/231
f 173/180/211 174/181/210 140/185/217 149/135/234
f 152/184/215 171/195/247 172/200/241 154/183/216
f 173/180/211 149/135/234 166/101/115 163/103/118
f 157/102/117 148/102/116 136/189/223 161/192/226
f 174/181/210 164/188/222 138/186/218 140/185/217
f 177/180/206 178/134/205 158/134/209 156/180/208
f 338/176/250 339/175/251 186/175/202 185/176/252
f 334/204/253 336/133/254 181/133/255 182/205/256
f 339/175/251 335/206/257 183/177/201 186/175/202
f 337/207/258 338/176/250 185/176/252 184/207/259
f 336/133/254 337/207/258 184/207/259 181/133/255
f 335/206/257 334/204/253 182/205/256 183/177/201
f 200/197/260 205/199/240 172/200/241 155/197/248
f 200/197/260 155/197/248 153/203/246 201/203/245
f 215/193/261 214/208/262 195/209/263 194/193/264
f 206/134/265 208/210/266 193/210/267 190/134/268
f 213/210/269 212/134/270 198/134/271 199/210/272
f 207/211/273 206/134/265 190/134/268 191/212/274
f 188/213/275 189/176/276 192/198/277 193/210/267
f 193/210/267 192/198/277 191/212/274 190/134/268
f 210/176/278 209/198/279 192/198/277 189/176/276
f 211/214/280 210/176/278 189/176/276 188/213/275
f 208/210/266 211/214/280 188/213/275 193/210/267
f 209/198/279 207/211/273 191/212/274 192/198/277
f 195/209/263 196/132/281 199/210/272 194/193/264
f 194/193/264 199/210/272 198/134/271 197/205/282
f 212/134/270 216/204/283 197/205/282 198/134/271
f 214/208/262 217/132/284 196/132/281 195/209/263
f 217/132/284 213/210/269 199/210/272 196/132/281
f 216/204/283 215/193/261 194/193/264 197/205/282
f 175/102/207 177/180/206 156/180/208 157/102/117
f 147/197/237 200/197/260 201/203/245 141/203/249
f 147/197/237 170/196/236 205/199/240 200/197/260
f 137/184/233 169/195/232 204/195/244 203/184/214
f 169/195/232 141/203/249 201/203/245 204/195/244
f 170/196/236 143/183/239 202/183/213 205/199/240
f 143/183/239 137/184/233 203/184/214 202/183/213
f 168/198/238 151/135/235 207/211/273 209/198/279
f 187/210/285 142/132/230 211/214/280 208/210/266
f 142/132/230 150/102/231 210/176/278 211/214/280
f 150/102/231 168/198/238 209/198/279 210/176/278
f 151/135/235 146/134/220 206/134/265 207/211/273
f 146/134/220 187/210/285 208/210/266 206/134/265
f 144/136/219 167/193/229 215/193/261 216/204/283
f 142/132/230 187/210/285 213/210/269 217/132/284
f 145/194/228 142/132/230 217/132/284 214/208/262
f 146/134/220 144/136/219 216/204/283 212/134/270
f 187/210/285 146/134/220 212/134/270 213/210/269
f 167/193/229 145/194/228 214/208/262 215/193/261
f 141/203/249 169/195/232 166/101/115 149/135/234
f 162/215/286 164/188/222 160/187/221 159/191/225
f 165/193/227 138/186/218 164/188/222 162/215/286
f 159/191/225 139/190/224 165/193/227 162/215/286
f 227/74/89 218/216/188 219/94/60 226/26/26
f 229/93/109 222/92/90 223/25/25 228/33/37
f 222/75/90 227/74/89 226/26/26 223/25/25
f 225/95/84 229/93/109 228/33/37 224/32/36
f 218/170/188 220/70/85 221/49/61 219/48/60
f 220/70/85 225/69/84 224/61/36 221/49/61
f 218/216/188 227/74/89 126/77/92 130/96/110
f 231/165/184 233/166/185 232/217/287 230/218/288
f 239/163/182 231/165/184 230/218/288 238/167/186
f 237/156/175 240/155/174 241/158/177 236/164/183
f 238/167/186 237/156/175 236/164/183 239/163/182
f 235/162/181 232/217/287 233/166/185 234/159/178
f 234/159/178 241/158/177 240/155/174 235/162/181
f 15/146/164 119/161/180 233/166/185 231/165/184
f 282/219/289 271/220/290 277/221/291 278/222/292
f 278/222/292 283/223/293 91/224/294 93/130/145
f 283/223/293 288/107/123 290/225/295 91/224/294
f 261/226/133 286/124/132 281/123/139 276/227/296
f 84/131/146 93/130/145 91/224/294 16/228/297
f 279/119/135 272/118/134 271/220/290 282/219/289
f 249/44/56 16/228/297 37/229/298 248/45/57
f 243/56/68 84/131/146 16/228/297 249/44/56
f 243/56/68 242/55/67 83/128/143 84/131/146
f 247/31/299 246/121/137 112/120/136 38/144/162
f 244/21/21 111/122/138 250/125/140 245/22/22
f 242/55/67 80/52/64 42/19/19 245/22/22
f 242/55/67 245/22/22 88/129/144 83/128/143
f 245/22/22 250/243/140 89/126/141 88/129/144
f 274/258/320 267/261/323 92/263/325 43/264/326
f 268/108/124 288/107/123 283/223/293 269/251/315
f 285/265/327 270/266/328 276/267/296 281/268/139
f 269/251/315 283/223/293 278/222/292 277/221/291
f 79/105/121 252/109/125 274/258/320 43/264/326
f 250/243/140 286/116/132 279/119/135 89/126/141
f 90/127/142 282/219/289 278/222/292 93/130/145
f 89/126/141 279/119/135 282/219/289 90/127/142
f 246/121/137 285/265/327 281/268/139 111/122/138
f 280/270/330 284/271/331 247/31/299
f 247/31/299 284/271/331 285/265/327 246/121/137
f 92/263/325 267/261/323 266/272/332 284/271/331 280/270/330
f 270/266/328 285/265/327 284/271/331 266/272/332
f 287/273/333 37/229/298 16/228/297 91/224/294
f 91/224/294 290/225/295 291/274/334 287/273/333
f 290/225/295 288/107/123 289/106/122 291/274/334
f 238/167/186 230/218/288 124/157/176
f 230/218/288 232/217/287 124/157/176
f 232/217/287 235/162/181 124/157/176
f 321/276/335 307/143/160 306/142/159 310/153/172
f 113/40/51 320/39/50 311/277/336 114/160/179
f 320/39/50 321/276/335 310/153/172 311/277/336
f 304/112/128 308/145/163 315/278/337 317/113/129
f 317/113/129 315/278/337 314/38/49 316/154/173
f 114/160/179 311/277/336 313/279/338 115/150/168
f 311/277/336 310/153/172 312/114/130 313/279/338
f 115/150/168 313/279/338 318/280/339 118/151/169
f 313/279/338 312/114/130 319/110/126 318/280/339
f 118/151/169 318/280/339 316/154/173 116/148/166
f 318/280/339 319/110/126 317/113/129 316/154/173
f 308/145/163 307/143/160 321/276/335 315/278/337
f 315/278/337 321/276/335 320/39/50 314/38/49
f 325/172/192 327/102/200 175/102/207 180/202/243
f 323/133/193 179/201/242 176/179/204 332/178/203
f 183/177/201 182/205/256 333/182/212 330/173/195
f 325/172/192 180/202/243 179/201/242 323/133/193
f 184/207/259 185/176/252 326/176/199 324/171/191
f 181/133/255 322/133/194 333/182/212 182/205/256
f 324/171/191 326/176/199 327/102/200 325/172/192
f 76/134/151 73/136/153 334/204/253 335/206/257
f 9/133/150 39/132/148 337/207/258 336/133/254
f 39/132/148 100/102/147 338/176/250 337/207/258
f 101/135/152 76/134/151 335/206/257 339/175/251
f 73/136/153 9/133/150 336/133/254 334/204/253
f 100/102/147 101/135/152 339/175/251 338/176/250
f 331/174/196 178/134/205 177/180/206 329/175/197
f 185/176/252 186/175/202 328/175/198 326/176/199
f 184/207/259 324/171/191 322/133/194 181/133/255
f 330/173/195 333/182/212 332/178/203 331/174/196
f 439/1/340 360/4/341 341/3/342 437/2/343
f 361/5/344 362/8/345 345/7/346 343/6/347
f 362/8/345 363/10/348 347/9/349 345/7/346
f 357/11/350 358/14/351 352/13/352 350/12/353
f 359/19/358 549/22/359 548/21/360 418/20/361
f 360/4/341 340/24/362 342/23/363 361/5/344
f 527/25/364 367/12/365 364/27/366 530/26/367
f 345/7/346 26/9/30 24/3/29 343/6/347
f 358/14/351 359/19/358 418/20/361 352/13/352
f 342/23/363 23/12/33 25/29/32 344/28/368
f 418/20/361 36/31/35 34/30/34 352/13/352
f 528/32/369 368/6/370 366/34/371 532/33/372
f 402/35/373 357/11/350 350/12/353 405/36/374
f 363/10/348 48/37/43 28/9/42 347/9/349
f 438/12/375 134/12/46 21/12/45 340/24/362
f 350/12/353 32/12/48 30/31/47 405/36/374
f 347/9/349 28/9/42 26/9/30 345/7/346
f 612/38/376 425/41/377 421/40/378 618/39/379
f 344/28/368 25/29/32 27/42/54 346/25/380
f 353/43/381 87/46/58 248/45/57 551/44/382
f 343/6/347 24/3/29 22/47/59 341/3/342
f 352/13/352 34/30/34 32/12/48 350/12/353
f 523/48/383 378/51/384 379/50/385 525/49/386
f 340/24/362 21/12/45 23/12/33 342/23/363
f 391/52/387 359/19/358 358/14/351 390/53/388
f 396/54/389 547/56/390 546/55/391 391/52/387
f 351/57/392 33/58/71 35/58/70 396/54/389
f 349/59/393 31/58/75 77/58/74 392/58/394
f 403/60/395 29/58/77 31/58/75 349/59/393
f 346/25/380 27/42/54 48/37/43 363/10/348
f 341/3/342 360/4/341 361/5/344 343/6/347
f 344/28/368 346/25/380 363/10/348 362/8/345
f 342/23/363 344/28/368 362/8/345 361/5/344
f 438/12/375 340/24/362 360/4/341 439/1/340
f 525/49/386 379/50/385 381/62/396 528/61/369
f 365/63/397 385/65/398 378/51/384 523/64/383
f 369/66/399 387/67/400 385/65/398 365/63/397
f 532/33/372 366/34/371 367/12/365 527/25/364
f 369/66/399 370/68/401 366/34/371 368/6/370
f 365/63/397 364/27/366 370/68/401 369/66/399
f 370/68/401 364/27/366 367/12/365 366/34/371
f 529/69/402 20/9/87 18/71/86 524/70/403
f 433/72/404 368/6/370 528/73/369 381/62/396
f 531/74/405 434/77/406 435/76/407 526/75/408
f 383/78/409 374/81/410 376/80/411 386/79/412
f 437/2/343 133/6/97 20/9/87 529/2/402
f 382/9/413 373/82/414 374/81/410 383/78/409
f 377/83/415 415/86/416 414/85/417 380/84/418
f 384/87/419 416/88/420 415/86/416 377/83/415
f 371/89/421 375/91/422 376/80/411 372/90/423
f 372/90/423 376/80/411 374/81/410 373/82/414
f 380/84/418 372/90/423 373/82/414 382/9/413
f 526/92/408 438/12/375 439/1/340 533/93/424
f 378/51/384 377/83/415 380/84/418 379/50/385
f 379/50/385 380/84/418 382/9/413 381/62/396
f 530/26/367 364/27/366 365/63/397 523/94/383
f 384/87/419 385/65/398 387/67/400 386/79/412
f 377/83/415 378/51/384 385/65/398 384/87/419
f 533/93/424 439/1/340 437/2/343 529/95/402
f 436/96/425 406/98/426 407/97/427 434/77/406
f 436/96/425 129/100/114 75/99/113 406/98/426
f 470/101/428 467/103/429 461/102/430 452/102/431
f 434/77/406 407/97/427 404/31/432 435/76/407
f 392/58/394 351/57/392 390/53/388 393/104/433
f 349/59/393 392/58/394 393/104/433 357/11/350
f 77/58/74 33/58/71 351/57/392 392/58/394
f 79/105/121 554/109/434 570/108/435 588/107/436 289/106/122
f 390/53/388 358/14/351 357/11/350 393/104/433
f 351/57/392 396/54/389 391/52/387 390/53/388
f 617/110/437 615/113/438 602/112/439 603/111/440
f 551/44/382 547/56/390 396/54/389 353/43/381
f 610/114/441 617/110/437 603/111/440 607/115/442
f 353/43/381 396/54/389 35/58/70 87/46/58
f 587/116/443 581/119/444 574/118/445 563/117/446
f 420/120/447 548/21/360 419/122/448 550/121/449
f 582/123/450 419/122/448 552/125/451 587/124/443
f 398/126/452 397/129/453 394/128/454 399/127/455
f 399/127/455 394/128/454 395/131/456 401/130/457
f 408/102/458 403/60/395 402/35/373 356/132/459
f 405/36/374 30/31/47 74/12/149 404/31/432
f 356/132/459 402/35/373 405/36/374 348/133/460
f 389/134/461 407/97/427 406/98/426 409/135/462
f 388/136/463 404/31/432 407/97/427 389/134/461
f 403/60/395 349/59/393 357/11/350 402/35/373
f 417/137/464 413/139/465 412/138/466 416/88/420
f 371/89/421 410/140/467 412/138/466 375/91/422
f 415/86/416 410/140/467 411/141/468 414/85/417
f 380/84/418 414/85/417 411/141/468 372/90/423
f 375/91/422 412/138/466 413/139/465 376/80/411
f 376/80/411 413/139/465 417/137/464 386/79/412
f 372/90/423 411/141/468 410/140/467 371/89/421
f 386/79/412 417/137/464 416/88/420 384/87/419
f 602/112/439 418/20/361 548/21/360 603/111/440
f 604/142/469 38/144/162 86/12/161 605/143/470
f 606/145/471 36/31/35 418/20/361 602/112/439
f 607/115/442 420/120/447 38/144/162 604/142/469
f 603/111/440 548/21/360 420/120/447 607/115/442
f 605/143/470 86/12/161 36/31/35 606/145/471
f 425/41/377 430/147/472 354/146/473 421/40/378
f 424/148/474 429/149/475 430/147/472 425/41/377
f 423/150/476 428/152/477 431/151/478 426/151/479
f 608/153/480 610/114/441 607/115/442 604/142/469
f 614/154/481 424/148/474 425/41/377 612/38/376
f 544/155/482 432/157/483 541/156/484
f 428/152/477 538/159/485 545/158/486 431/151/478
f 421/40/378 354/146/473 427/161/487 422/160/488
f 422/160/488 427/161/487 428/152/477 423/150/476
f 426/151/479 431/151/478 429/149/475 424/148/474
f 539/162/489 432/157/483 544/155/482
f 429/149/475 540/164/490 543/163/491 430/147/472
f 430/147/472 543/163/491 535/165/492 354/146/473
f 431/151/478 545/158/486 540/164/490 429/149/475
f 427/161/487 537/166/493 538/159/485 428/152/477
f 541/156/484 432/157/483 542/167/494
f 387/67/400 369/66/399 368/6/370 433/72/404
f 386/79/412 387/67/400 433/72/404 383/78/409
f 416/88/420 412/138/466 410/140/467 415/86/416
f 406/98/426 75/99/113 29/58/77 403/60/395
f 404/31/432 74/12/149 127/12/187 435/76/407
f 522/168/495 17/169/189 129/100/114 436/96/425
f 524/70/403 18/71/86 17/169/189 522/170/495
f 383/78/409 433/72/404 381/62/396 382/9/413
f 526/25/408 19/12/190 134/12/46 438/12/375
f 435/76/407 127/12/187 19/12/190 526/25/408
f 341/3/342 22/47/59 133/6/97 437/2/343
f 348/133/460 405/36/374 404/31/432 388/136/463
f 406/98/426 403/60/395 408/102/458 409/135/462
f 622/171/496 620/133/497 621/133/498 623/172/499
f 628/173/500 626/175/501 627/175/502 629/174/503
f 624/176/504 625/102/505 627/175/502 626/175/501
f 487/177/506 490/175/507 626/175/501 628/173/500
f 629/174/503 482/134/508 480/179/509 630/178/510
f 625/102/505 479/102/511 481/180/512 627/175/502
f 460/180/513 477/180/514 478/181/515 462/134/516
f 620/133/497 631/182/517 630/178/510 621/133/498
f 506/183/518 458/183/519 456/184/520 507/184/521
f 444/185/522 450/134/523 448/136/524 442/186/525
f 462/134/516 478/181/515 468/188/526 464/187/527
f 467/103/429 477/180/514 460/180/513 461/102/430
f 440/189/528 465/192/529 463/191/530 443/190/531
f 469/193/532 471/193/533 449/194/534 443/190/531
f 443/190/531 449/194/534 446/132/535 440/189/528
f 442/186/525 448/136/524 471/193/533 469/193/532
f 440/189/528 446/132/535 454/102/536 452/102/431
f 473/195/537 470/101/428 452/102/431 441/184/538
f 453/135/539 455/135/540 450/134/523 444/185/522
f 474/196/541 472/198/542 455/135/540 451/197/543
f 441/184/538 452/102/431 454/102/536 447/183/544
f 509/199/545 476/200/546 458/183/519 506/183/518
f 480/179/509 464/187/527 463/191/530 483/201/547
f 484/202/548 465/192/529 461/102/430 479/102/511
f 483/201/547 463/191/530 465/192/529 484/202/548
f 482/134/508 462/134/516 464/187/527 480/179/509
f 508/195/549 475/195/550 457/203/551 505/203/552
f 507/184/521 456/184/520 475/195/550 508/195/549
f 475/195/550 476/200/546 459/197/553 457/203/551
f 451/197/543 455/135/540 453/135/539 445/203/554
f 447/183/544 454/102/536 472/198/542 474/196/541
f 477/180/514 453/135/539 444/185/522 478/181/515
f 456/184/520 458/183/519 476/200/546 475/195/550
f 477/180/514 467/103/429 470/101/428 453/135/539
f 461/102/430 465/192/529 440/189/528 452/102/431
f 478/181/515 444/185/522 442/186/525 468/188/526
f 481/180/512 460/180/513 462/134/516 482/134/508
f 636/176/555 489/176/556 490/175/507 637/175/557
f 632/204/558 486/205/559 485/133/560 634/133/561
f 637/175/557 490/175/507 487/177/506 633/206/562
f 635/207/563 488/207/564 489/176/556 636/176/555
f 634/133/561 485/133/560 488/207/564 635/207/563
f 633/206/562 487/177/506 486/205/559 632/204/558
f 504/197/565 459/197/553 476/200/546 509/199/545
f 504/197/565 505/203/552 457/203/551 459/197/553
f 519/193/566 498/193/567 499/209/568 518/208/569
f 510/134/570 494/134/571 497/210/572 512/210/573
f 517/210/574 503/210/575 502/134/576 516/134/577
f 511/211/578 495/212/579 494/134/571 510/134/570
f 492/213/580 497/210/572 496/198/581 493/176/582
f 497/210/572 494/134/571 495/212/579 496/198/581
f 514/176/583 493/176/582 496/198/581 513/198/584
f 515/214/585 492/213/580 493/176/582 514/176/583
f 512/210/573 497/210/572 492/213/580 515/214/585
f 513/198/584 496/198/581 495/212/579 511/211/578
f 499/209/568 498/193/567 503/210/575 500/132/586
f 498/193/567 501/205/587 502/134/576 503/210/575
f 516/134/577 502/134/576 501/205/587 520/204/588
f 518/208/569 499/209/568 500/132/586 521/132/589
f 521/132/589 500/132/586 503/210/575 517/210/574
f 520/204/588 501/205/587 498/193/567 519/193/566
f 479/102/511 461/102/430 460/180/513 481/180/512
f 451/197/543 445/203/554 505/203/552 504/197/565
f 451/197/543 504/197/565 509/199/545 474/196/541
f 441/184/538 507/184/521 508/195/549 473/195/537
f 473/195/537 508/195/549 505/203/552 445/203/554
f 474/196/541 509/199/545 506/183/518 447/183/544
f 447/183/544 506/183/518 507/184/521 441/184/538
f 472/198/542 513/198/584 511/211/578 455/135/540
f 491/210/590 512/210/573 515/214/585 446/132/535
f 446/132/535 515/214/585 514/176/583 454/102/536
f 454/102/536 514/176/583 513/198/584 472/198/542
f 455/135/540 511/211/578 510/134/570 450/134/523
f 450/134/523 510/134/570 512/210/573 491/210/590
f 448/136/524 520/204/588 519/193/566 471/193/533
f 446/132/535 521/132/589 517/210/574 491/210/590
f 449/194/534 518/208/569 521/132/589 446/132/535
f 450/134/523 516/134/577 520/204/588 448/136/524
f 491/210/590 517/210/574 516/134/577 450/134/523
f 471/193/533 519/193/566 518/208/569 449/194/534
f 445/203/554 453/135/539 470/101/428 473/195/537
f 466/215/591 463/191/530 464/187/527 468/188/526
f 469/193/532 466/215/591 468/188/526 442/186/525
f 463/191/530 466/215/591 469/193/532 443/190/531
f 531/74/405 530/26/367 523/94/383 522/216/495
f 533/93/424 532/33/372 527/25/364 526/92/408
f 526/75/408 527/25/364 530/26/367 531/74/405
f 529/95/402 528/32/369 532/33/372 533/93/424
f 522/170/495 523/48/383 525/49/386 524/70/403
f 524/70/403 525/49/386 528/61/369 529/69/402
f 522/216/495 436/96/425 434/77/406 531/74/405
f 535/165/492 534/218/592 536/217/593 537/166/493
f 543/163/491 542/167/494 534/218/592 535/165/492
f 541/156/484 540/164/490 545/158/486 544/155/482
f 542/167/494 543/163/491 540/164/490 541/156/484
f 539/162/489 538/159/485 537/166/493 536/217/593
f 538/159/485 539/162/489 544/155/482 545/158/486
f 354/146/473 535/165/492 537/166/493 427/161/487
f 583/219/594 580/222/595 579/221/596 573/220/597
f 580/222/595 401/130/457 400/224/598 584/223/599
f 584/223/599 400/224/598 589/225/600 588/107/436
f 563/226/446 578/227/601 582/123/450 587/124/443
f 395/131/456 355/228/602 400/224/598 401/130/457
f 581/119/444 583/219/594 573/220/597 574/118/445
f 551/44/382 248/45/57 37/229/298 355/228/602
f 547/56/390 551/44/382 355/228/602 395/131/456
f 547/56/390 395/131/456 394/128/454 546/55/391
f 247/31/299 38/144/162 420/120/447 550/121/449
f 548/21/360 549/22/359 552/125/451 419/122/448
f 546/55/391 549/22/359 359/19/358 391/52/387
f 546/55/391 394/128/454 397/129/453 549/22/359
f 549/22/359 397/129/453 398/126/452 552/243/451
f 576/258/622 43/264/326 92/263/325 569/261/625
f 570/108/435 571/251/617 584/223/599 588/107/436
f 586/265/628 582/268/450 578/267/601 572/266/629
f 571/251/617 579/221/596 580/222/595 584/223/599
f 79/105/121 43/264/326 576/258/622 554/109/434
f 552/243/451 398/126/452 581/119/444 587/116/443
f 399/127/455 401/130/457 580/222/595 583/219/594
f 398/126/452 399/127/455 583/219/594 581/119/444
f 550/121/449 419/122/448 582/268/450 586/265/628
f 280/270/330 247/31/299 585/271/631
f 247/31/299 550/121/449 586/265/628 585/271/631
f 92/263/325 280/270/330 585/271/631 568/272/632 569/261/625
f 572/266/629 568/272/632 585/271/631 586/265/628
f 287/273/333 400/224/598 355/228/602 37/229/298
f 400/224/598 287/273/333 291/274/334 589/225/600
f 589/225/600 291/274/334 289/106/122 588/107/436
f 542/167/494 432/157/483 534/218/592
f 534/218/592 432/157/483 536/217/593
f 536/217/593 432/157/483 539/162/489
f 619/276/633 608/153/480 604/142/469 605/143/470
f 421/40/378 422/160/488 609/277/634 618/39/379
f 618/39/379 609/277/634 608/153/480 619/276/633
f 602/112/439 615/113/438 613/278/635 606/145/471
f 615/113/438 614/154/481 612/38/376 613/278/635
f 422/160/488 423/150/476 611/279/636 609/277/634
f 609/277/634 611/279/636 610/114/441 608/153/480
f 423/150/476 426/151/479 616/280/637 611/279/636
f 611/279/636 616/280/637 617/110/437 610/114/441
f 426/151/479 424/148/474 614/154/481 616/280/637
f 616/280/637 614/154/481 615/113/438 617/110/437
f 606/145/471 613/278/635 619/276/633 605/143/470
f 613/278/635 612/38/376 618/39/379 619/276/633
f 623/172/499 484/202/548 479/102/511 625/102/505
f 621/133/498 630/178/510 480/179/509 483/201/547
f 487/177/506 628/173/500 631/182/517 486/205/559
f 623/172/499 621/133/498 483/201/547 484/202/548
f 488/207/564 622/171/496 624/176/504 489/176/556
f 485/133/560 486/205/559 631/182/517 620/133/497
f 622/171/496 623/172/499 625/102/505 624/176/504
f 389/134/461 633/206/562 632/204/558 388/136/463
f 348/133/460 634/133/561 635/207/563 356/132/459
f 356/132/459 635/207/563 636/176/555 408/102/458
f 409/135/462 637/175/557 633/206/562 389/134/461
f 388/136/463 632/204/558 634/133/561 348/133/460
f 408/102/458 636/176/555 637/175/557 409/135/462
f 629/174/503 627/175/502 481/180/512 482/134/508
f 489/176/556 624/176/504 626/175/501 490/175/507
f 488/207/564 485/133/560 620/133/497 622/171/496
f 628/173/500 629/174/503 630/178/510 631/182/517
usemtl Eyes
f 260/15/15 264/16/16 265/17/17 275/18/18
f 253/230/300 258/231/301 255/232/302 254/233/303
f 259/234/304 263/235/305 264/16/16 260/15/15
f 263/235/305 273/236/306 253/237/300 264/16/16
f 260/238/15 275/239/18 262/240/307 256/241/308
f 264/16/16 253/237/300 254/233/303 265/17/17
f 259/234/304 260/238/15 256/241/308 257/242/309
f 273/244/306 251/245/310 258/231/301 253/230/300
f 296/246/311 293/247/312 257/242/309 256/241/308
f 294/248/313 295/249/314 268/250/124 269/251/315
f 297/252/316 298/253/317 271/220/290 272/118/134
f 295/249/314 299/254/318 252/255/125 268/250/124
f 299/256/318 300/257/319 274/258/320 252/109/125
f 301/259/321 297/252/316 272/118/134 261/117/133
f 300/257/319 292/260/322 267/261/323 274/258/320
f 298/253/317 303/262/324 277/221/291 271/220/290
f 303/262/324 294/248/313 269/251/315 277/221/291
f 293/247/312 292/260/322 259/234/304 257/242/309
f 302/269/329 296/246/311 256/241/308 262/240/307
f 302/269/329 301/275/321 261/226/133 276/227/296
f 262/240/307 275/239/18 301/275/321 302/269/329
f 276/227/296 270/266/328 296/246/311 302/269/329
f 266/272/332 267/261/323 292/260/322 293/247/312
f 255/232/302 258/231/301 294/248/313 303/262/324
f 254/233/303 255/232/302 303/262/324 298/253/317
f 263/235/305 259/234/304 292/260/322 300/257/319
f 275/18/18 265/17/17 297/252/316 301/259/321
f 273/236/306 263/235/305 300/257/319 299/256/318
f 251/245/310 273/244/306 299/254/318 295/249/314
f 265/17/17 254/233/303 298/253/317 297/252/316
f 258/231/301 251/245/310 295/249/314 294/248/313
f 270/266/328 266/272/332 293/247/312 296/246/311
f 562/15/354 577/18/355 567/17/356 566/16/357
f 555/230/603 556/233/604 557/232/605 560/231/606
f 561/234/607 562/15/354 566/16/357 565/235/608
f 565/235/608 566/16/357 555/237/603 575/236/609
f 562/238/354 558/241/610 564/240/611 577/239/355
f 566/16/357 567/17/356 556/233/604 555/237/603
f 561/234/607 559/242/612 558/241/610 562/238/354
f 575/244/609 555/230/603 560/231/606 553/245/613
f 594/246/614 558/241/610 559/242/612 591/247/615
f 592/248/616 571/251/617 570/250/435 593/249/618
f 595/252/619 574/118/445 573/220/597 596/253/620
f 593/249/618 570/250/435 554/255/434 597/254/621
f 597/256/621 554/109/434 576/258/622 598/257/623
f 599/259/624 563/117/446 574/118/445 595/252/619
f 598/257/623 576/258/622 569/261/625 590/260/626
f 596/253/620 573/220/597 579/221/596 601/262/627
f 601/262/627 579/221/596 571/251/617 592/248/616
f 591/247/615 559/242/612 561/234/607 590/260/626
f 600/269/630 564/240/611 558/241/610 594/246/614
f 600/269/630 578/227/601 563/226/446 599/275/624
f 564/240/611 600/269/630 599/275/624 577/239/355
f 578/227/601 600/269/630 594/246/614 572/266/629
f 568/272/632 591/247/615 590/260/626 569/261/625
f 557/232/605 601/262/627 592/248/616 560/231/606
f 556/233/604 596/253/620 601/262/627 557/232/605
f 565/235/608 598/257/623 590/260/626 561/234/607
f 577/18/355 599/259/624 595/252/619 567/17/356
f 575/236/609 597/256/621 598/257/623 565/235/608
f 553/245/613 593/249/618 597/254/621 575/244/609
f 567/17/356 595/252/619 596/253/620 556/233/604
f 560/231/606 592/248/616 593/249/618 553/245/613
f 572/266/629 594/246/614 591/247/615 568/272/632
f 670/281/638 646/282/639 639/106/640 664/283/641
f 669/281/642 666/284/643 643/106/644 650/282/645
f 668/285/646 654/106/647 643/106/644 666/284/643
f 659/286/648 656/225/649 644/225/650 651/286/651
f 658/287/652 655/107/653 645/107/654 652/287/655
f 656/225/649 658/287/652 652/287/655 644/225/650
f 640/225/656 648/287/657 658/287/652 656/225/649
f 648/287/657 638/107/658 655/107/653 658/287/652
f 667/288/659 659/286/648 651/286/651 665/289/660
f 663/290/661 647/286/662 659/286/648 667/288/659
f 647/286/662 640/225/656 656/225/649 659/286/648
f 655/107/653 660/291/663 653/291/664 645/107/654
f 638/107/658 649/291/665 660/291/663 655/107/653
f 664/283/641 639/106/640 654/106/647 668/285/646
f 665/289/660 669/281/642 650/282/645 642/274/666
f 644/225/650 652/287/655 661/292/667 651/286/651
f 652/287/655 645/107/654 653/291/664 661/292/667
f 648/287/657 662/293/668 649/291/665 638/107/658
f 640/225/656 647/286/662 662/293/668 648/287/657
f 663/290/661 641/274/669 646/282/639 670/281/638
f 647/286/662 663/290/661 670/281/638 662/293/668
f 651/286/651 661/292/667 669/281/642 665/289/660
f 649/291/665 664/283/641 668/285/646 660/291/663
f 641/274/669 663/290/661 667/288/659 657/274/670
f 657/274/670 667/288/659 665/289/660 642/274/666
f 660/291/663 668/285/646 666/284/643 653/291/664
f 661/292/667 653/291/664 666/284/643 669/281/642
f 662/293/668 670/281/638 664/283/641 649/291/665
f 695/281/671 689/283/672 639/106/640 646/282/639
f 694/281/673 650/282/645 643/106/644 691/284/674
f 693/285/675 691/284/674 643/106/644 654/106/647
f 684/286/676 678/286/677 673/225/678 682/225/679
f 683/287/680 679/287/681 674/107/682 681/107/683
f 682/225/679 673/225/678 679/287/681 683/287/680
f 672/225/684 682/225/679 683/287/680 676/287/685
f 676/287/685 683/287/680 681/107/683 671/107/686
f 692/288/687 690/289/688 678/286/677 684/286/676
f 688/290/689 692/288/687 684/286/676 675/286/690
f 675/286/690 684/286/676 682/225/679 672/225/684
f 681/107/683 674/107/682 680/291/691 685/291/692
f 671/107/686 681/107/683 685/291/692 677/291/693
f 689/283/672 693/285/675 654/106/647 639/106/640
f 690/289/688 642/274/666 650/282/645 694/281/673
f 673/225/678 678/286/677 686/292/694 679/287/681
f 679/287/681 686/292/694 680/291/691 674/107/682
f 676/287/685 671/107/686 677/291/693 687/293/695
f 672/225/684 676/287/685 687/293/695 675/286/690
f 688/290/689 695/281/671 646/282/639 641/274/669
f 675/286/690 687/293/695 695/281/671 688/290/689
f 678/286/677 690/289/688 694/281/673 686/292/694
f 677/291/693 685/291/692 693/285/675 689/283/672
f 641/274/669 657/274/670 692/288/687 688/290/689
f 657/274/670 642/274/666 690/289/688 692/288/687
f 685/291/692 680/291/691 691/284/674 693/285/675
f 686/292/694 694/281/673 691/284/674 680/291/691
f 687/293/695 677/291/693 689/283/672 695/281/671
s 0
usemtl Material
f 720/294/696 702/295/696 700/296/696 707/297/696
f 696/298/697 706/299/697 715/300/697
f 696/301/698 709/302/698 717/303/698
f 708/304/699 698/305/699 699/306/699 716/307/699
f 696/308/700 717/309/700 711/310/700
f 714/311/701 701/312/701 698/313/701 708/314/701
f 696/315/702 711/316/702 719/317/702
f 710/318/703 703/319/703 705/320/703 718/321/703
f 696/315/704 713/322/704 721/323/704
f 716/324/705 699/325/705 703/319/705 710/326/705
f 718/321/706 705/320/706 704/327/706 712/328/706
f 712/329/707 704/330/707 702/331/707 720/332/707
f 696/315/708 719/317/708 713/322/708
f 696/333/709 721/334/709 706/335/709
f 696/336/710 715/300/710 709/337/710
f 702/331/711 704/330/711 697/338/711
f 704/327/712 705/320/712 697/339/712
f 700/296/713 702/295/713 697/340/713
f 701/341/714 700/342/714 697/343/714
f 699/306/715 698/305/715 697/344/715
f 698/313/716 701/312/716 697/345/716
f 705/320/717 703/319/717 697/346/717
f 703/319/718 699/325/718 697/339/718
f 707/347/719 714/348/719 715/300/719 706/299/719
f 709/337/720 715/300/720 714/311/720 708/314/720
f 708/304/721 716/307/721 717/303/721 709/302/721
f 711/310/722 717/309/722 716/324/722 710/326/722
f 710/318/723 718/321/723 719/317/723 711/316/723
f 713/322/724 719/317/724 718/321/724 712/328/724
f 712/329/725 720/332/725 721/323/725 713/322/725
f 706/335/726 721/334/726 720/294/726 707/297/726
f 707/347/727 700/342/727 701/341/727 714/348/727
